<?xml version="1.0" standalone="no"?>
<!DOCTYPE svg PUBLIC "-//W3C//DTD SVG 20010904//EN"
 "http://www.w3.org/TR/2001/REC-SVG-20010904/DTD/svg10.dtd">
<svg version="1.0" xmlns="http://www.w3.org/2000/svg"
 width="512.000000pt" height="512.000000pt" viewBox="0 0 512.000000 512.000000"
 preserveAspectRatio="xMidYMid meet">
<metadata>
Created by potrace 1.11, written by Peter Selinger 2001-2013
</metadata>
<g transform="translate(0.000000,512.000000) scale(0.100000,-0.100000)"
fill="#000000" stroke="none">
<path d="M610 5109 c-66 -11 -99 -27 -210 -101 -167 -111 -351 -338 -386 -473
-13 -47 -15 -3860 -3 -3925 14 -73 31 -108 105 -215 52 -76 168 -199 240 -255
72 -56 174 -112 229 -126 17 -5 896 -9 1955 -10 1580 -2 1936 0 1988 11 55 12
86 28 196 98 110 70 254 228 345 380 51 84 49 25 47 2087 -1 1059 -6 1941 -10
1960 -4 19 -19 55 -33 80 -127 229 -378 450 -553 487 -67 14 -3822 16 -3910 2z"/>
</g>
</svg>
