<?xml version="1.0" encoding="UTF-8" standalone="no"?>
<!DOCTYPE svg PUBLIC "-//W3C//DTD SVG 1.1//EN"
 "http://www.w3.org/Graphics/SVG/1.1/DTD/svg11.dtd">
<!-- Generated by graphviz version 2.43.0 (0)
 -->
<!-- Title: G Pages: 1 -->
<svg width="276pt" height="404pt"
 viewBox="0.00 0.00 276.00 404.00" xmlns="http://www.w3.org/2000/svg" xmlns:xlink="http://www.w3.org/1999/xlink">
<g id="graph0" class="graph" transform="scale(1 1) rotate(0) translate(4 400)">
<title>G</title>
<polygon fill="white" stroke="transparent" points="-4,4 -4,-400 272,-400 272,4 -4,4"/>
<!-- 3 -->
<g id="node1" class="node">
<title>3</title>
<ellipse fill="none" stroke="black" cx="147" cy="-378" rx="27" ry="18"/>
<text text-anchor="middle" x="147" y="-374.3" font-family="Times,serif" font-size="14.00">3</text>
</g>
<!-- 4 -->
<g id="node2" class="node">
<title>4</title>
<ellipse fill="none" stroke="black" cx="147" cy="-306" rx="27" ry="18"/>
<text text-anchor="middle" x="147" y="-302.3" font-family="Times,serif" font-size="14.00">4</text>
</g>
<!-- 3&#45;&gt;4 -->
<g id="edge1" class="edge">
<title>3&#45;&gt;4</title>
<path fill="none" stroke="black" d="M141.16,-360.41C139.96,-349.41 139.95,-335.03 141.12,-323.96"/>
</g>
<!-- 3&#45;&gt;4 -->
<g id="edge3" class="edge">
<title>3&#45;&gt;4</title>
<path fill="none" stroke="green" d="M152.84,-360.41C154.04,-349.41 154.05,-335.03 152.88,-323.96"/>
</g>
<!-- 12 -->
<g id="node3" class="node">
<title>12</title>
<ellipse fill="none" stroke="black" cx="27" cy="-162" rx="27" ry="18"/>
<text text-anchor="middle" x="27" y="-158.3" font-family="Times,serif" font-size="14.00">12</text>
</g>
<!-- 3&#45;&gt;12 -->
<g id="edge2" class="edge">
<title>3&#45;&gt;12</title>
<path fill="none" stroke="red" d="M131.67,-362.84C109.23,-341.19 67.74,-297.58 46,-252 34.85,-228.61 30.19,-198.66 28.28,-180.16"/>
</g>
<!-- 20 -->
<g id="node4" class="node">
<title>20</title>
<ellipse fill="none" stroke="black" cx="181" cy="-18" rx="27" ry="18"/>
<text text-anchor="middle" x="181" y="-14.3" font-family="Times,serif" font-size="14.00">20</text>
</g>
<!-- 3&#45;&gt;20 -->
<g id="edge4" class="edge">
<title>3&#45;&gt;20</title>
<path fill="none" stroke="purple" d="M166.98,-365.82C201.35,-344.95 268,-296.54 268,-235 268,-235 268,-235 268,-161 268,-120.14 266.91,-106.48 245,-72 233.86,-54.47 215,-39.89 200.63,-30.49"/>
</g>
<!-- 8 -->
<g id="node5" class="node">
<title>8</title>
<ellipse fill="none" stroke="black" cx="82" cy="-234" rx="27" ry="18"/>
<text text-anchor="middle" x="82" y="-230.3" font-family="Times,serif" font-size="14.00">8</text>
</g>
<!-- 4&#45;&gt;8 -->
<g id="edge5" class="edge">
<title>4&#45;&gt;8</title>
<path fill="none" stroke="red" d="M133.22,-290.15C122.18,-278.28 106.79,-261.7 95.76,-249.82"/>
</g>
<!-- 19 -->
<g id="node6" class="node">
<title>19</title>
<ellipse fill="none" stroke="black" cx="209" cy="-90" rx="27" ry="18"/>
<text text-anchor="middle" x="209" y="-86.3" font-family="Times,serif" font-size="14.00">19</text>
</g>
<!-- 4&#45;&gt;19 -->
<g id="edge6" class="edge">
<title>4&#45;&gt;19</title>
<path fill="none" stroke="purple" d="M162.35,-290.77C171.99,-280.88 183.73,-266.85 190,-252 210.69,-202.99 211.19,-138.59 210.03,-108.24"/>
</g>
<!-- 8&#45;&gt;12 -->
<g id="edge7" class="edge">
<title>8&#45;&gt;12</title>
<path fill="none" stroke="black" d="M65.94,-219.5C55.36,-208.06 42.31,-191.61 34.07,-179.41"/>
</g>
<!-- 8&#45;&gt;12 -->
<g id="edge8" class="edge">
<title>8&#45;&gt;12</title>
<path fill="none" stroke="green" d="M74.81,-216.41C66.6,-204.28 53.71,-188.03 43.2,-176.65"/>
</g>
<!-- 15 -->
<g id="node7" class="node">
<title>15</title>
<ellipse fill="none" stroke="black" cx="99" cy="-162" rx="27" ry="18"/>
<text text-anchor="middle" x="99" y="-158.3" font-family="Times,serif" font-size="14.00">15</text>
</g>
<!-- 8&#45;&gt;15 -->
<g id="edge9" class="edge">
<title>8&#45;&gt;15</title>
<path fill="none" stroke="purple" d="M86.12,-216.05C88.75,-205.21 92.16,-191.18 94.8,-180.28"/>
</g>
<!-- 19&#45;&gt;20 -->
<g id="edge16" class="edge">
<title>19&#45;&gt;20</title>
<path fill="none" stroke="green" d="M202.36,-72.41C197.9,-61.25 192.04,-46.6 187.59,-35.47"/>
</g>
<!-- 15&#45;&gt;20 -->
<g id="edge14" class="edge">
<title>15&#45;&gt;20</title>
<path fill="none" stroke="black" d="M105.34,-144.36C112.62,-126.04 125.45,-96 140,-72 148.2,-58.47 159.26,-44.36 167.83,-34.1"/>
</g>
<!-- 15&#45;&gt;19 -->
<g id="edge15" class="edge">
<title>15&#45;&gt;19</title>
<path fill="none" stroke="red" d="M118.16,-148.81C138.35,-135.96 169.95,-115.85 190.06,-103.05"/>
</g>
<!-- 11 -->
<g id="node8" class="node">
<title>11</title>
<ellipse fill="none" stroke="black" cx="154" cy="-234" rx="27" ry="18"/>
<text text-anchor="middle" x="154" y="-230.3" font-family="Times,serif" font-size="14.00">11</text>
</g>
<!-- 11&#45;&gt;12 -->
<g id="edge13" class="edge">
<title>11&#45;&gt;12</title>
<path fill="none" stroke="purple" d="M133.88,-221.91C110.24,-208.88 71.23,-187.38 47.45,-174.27"/>
</g>
<!-- 11&#45;&gt;20 -->
<g id="edge11" class="edge">
<title>11&#45;&gt;20</title>
<path fill="none" stroke="red" d="M155.87,-215.58C159.08,-186.03 165.99,-124.16 173,-72 174.61,-60.01 176.65,-46.53 178.27,-36.17"/>
</g>
<!-- 11&#45;&gt;19 -->
<g id="edge10" class="edge">
<title>11&#45;&gt;19</title>
<path fill="none" stroke="black" d="M160.42,-216.43C170.96,-189.22 191.83,-135.33 202.45,-107.9"/>
</g>
<!-- 11&#45;&gt;15 -->
<g id="edge12" class="edge">
<title>11&#45;&gt;15</title>
<path fill="none" stroke="green" d="M142.07,-217.81C132.84,-206.07 120.13,-189.89 110.91,-178.16"/>
</g>
</g>
</svg>
