<?xml version="1.0" encoding="UTF-8" standalone="no"?>
<!DOCTYPE svg PUBLIC "-//W3C//DTD SVG 1.1//EN"
 "http://www.w3.org/Graphics/SVG/1.1/DTD/svg11.dtd">
<!-- Generated by graphviz version 2.43.0 (0)
 -->
<!-- Title: G Pages: 1 -->
<svg width="264pt" height="260pt"
 viewBox="0.00 0.00 263.54 260.00" xmlns="http://www.w3.org/2000/svg" xmlns:xlink="http://www.w3.org/1999/xlink">
<g id="graph0" class="graph" transform="scale(1 1) rotate(0) translate(4 256)">
<title>G</title>
<polygon fill="white" stroke="transparent" points="-4,4 -4,-256 259.54,-256 259.54,4 -4,4"/>
<!-- 1 -->
<g id="node1" class="node">
<title>1</title>
<ellipse fill="none" stroke="black" cx="189" cy="-234" rx="27" ry="18"/>
<text text-anchor="middle" x="189" y="-230.3" font-family="Times,serif" font-size="14.00">1</text>
</g>
<!-- 1&#45;&gt;1 -->
<g id="edge1" class="edge">
<title>1&#45;&gt;1</title>
<path fill="none" stroke="black" d="M208.9,-246.43C221.69,-249.68 234,-245.53 234,-234 234,-222.47 221.69,-218.32 208.9,-221.57"/>
</g>
<!-- 6 -->
<g id="node2" class="node">
<title>6</title>
<ellipse fill="none" stroke="black" cx="189" cy="-162" rx="27" ry="18"/>
<text text-anchor="middle" x="189" y="-158.3" font-family="Times,serif" font-size="14.00">6</text>
</g>
<!-- 1&#45;&gt;6 -->
<g id="edge2" class="edge">
<title>1&#45;&gt;6</title>
<path fill="none" stroke="red" d="M183.16,-216.41C181.96,-205.41 181.95,-191.03 183.12,-179.96"/>
</g>
<!-- 1&#45;&gt;6 -->
<g id="edge5" class="edge">
<title>1&#45;&gt;6</title>
<path fill="none" stroke="cyan" d="M194.84,-216.41C196.04,-205.41 196.05,-191.03 194.88,-179.96"/>
</g>
<!-- 5 -->
<g id="node3" class="node">
<title>5</title>
<ellipse fill="none" stroke="black" cx="27" cy="-162" rx="27" ry="18"/>
<text text-anchor="middle" x="27" y="-158.3" font-family="Times,serif" font-size="14.00">5</text>
</g>
<!-- 1&#45;&gt;5 -->
<g id="edge3" class="edge">
<title>1&#45;&gt;5</title>
<path fill="none" stroke="green" d="M166.81,-223.41C135.88,-210.05 80.11,-185.95 49.18,-172.58"/>
</g>
<!-- 22 -->
<g id="node4" class="node">
<title>22</title>
<ellipse fill="none" stroke="black" cx="207" cy="-18" rx="27" ry="18"/>
<text text-anchor="middle" x="207" y="-14.3" font-family="Times,serif" font-size="14.00">22</text>
</g>
<!-- 1&#45;&gt;22 -->
<g id="edge4" class="edge">
<title>1&#45;&gt;22</title>
<path fill="none" stroke="purple" d="M207.56,-220.86C220.18,-211.42 235.83,-197.08 243,-180 261.58,-135.74 257.11,-117.88 243,-72 238.62,-57.75 228.96,-43.9 220.75,-33.93"/>
</g>
<!-- 6&#45;&gt;6 -->
<g id="edge10" class="edge">
<title>6&#45;&gt;6</title>
<path fill="none" stroke="black" d="M208.9,-174.43C221.69,-177.68 234,-173.53 234,-162 234,-150.47 221.69,-146.32 208.9,-149.57"/>
</g>
<!-- 14 -->
<g id="node5" class="node">
<title>14</title>
<ellipse fill="none" stroke="black" cx="117" cy="-90" rx="27" ry="18"/>
<text text-anchor="middle" x="117" y="-86.3" font-family="Times,serif" font-size="14.00">14</text>
</g>
<!-- 6&#45;&gt;14 -->
<g id="edge11" class="edge">
<title>6&#45;&gt;14</title>
<path fill="none" stroke="green" d="M174.43,-146.83C162.02,-134.77 144.27,-117.51 131.8,-105.38"/>
</g>
<!-- 17 -->
<g id="node7" class="node">
<title>17</title>
<ellipse fill="none" stroke="black" cx="207" cy="-90" rx="27" ry="18"/>
<text text-anchor="middle" x="207" y="-86.3" font-family="Times,serif" font-size="14.00">17</text>
</g>
<!-- 6&#45;&gt;17 -->
<g id="edge12" class="edge">
<title>6&#45;&gt;17</title>
<path fill="none" stroke="purple" d="M193.36,-144.05C196.19,-133.05 199.86,-118.76 202.68,-107.79"/>
</g>
<!-- 5&#45;&gt;5 -->
<g id="edge6" class="edge">
<title>5&#45;&gt;5</title>
<path fill="none" stroke="black" d="M46.9,-174.43C59.69,-177.68 72,-173.53 72,-162 72,-150.47 59.69,-146.32 46.9,-149.57"/>
</g>
<!-- 5&#45;&gt;14 -->
<g id="edge7" class="edge">
<title>5&#45;&gt;14</title>
<path fill="none" stroke="red" d="M43.93,-147.83C60.02,-135.32 84.08,-116.6 100.15,-104.11"/>
</g>
<!-- 18 -->
<g id="node6" class="node">
<title>18</title>
<ellipse fill="none" stroke="black" cx="45" cy="-90" rx="27" ry="18"/>
<text text-anchor="middle" x="45" y="-86.3" font-family="Times,serif" font-size="14.00">18</text>
</g>
<!-- 5&#45;&gt;18 -->
<g id="edge8" class="edge">
<title>5&#45;&gt;18</title>
<path fill="none" stroke="purple" d="M25.53,-143.7C27.25,-132.52 31.01,-118.08 35.06,-107.14"/>
</g>
<!-- 5&#45;&gt;18 -->
<g id="edge9" class="edge">
<title>5&#45;&gt;18</title>
<path fill="none" stroke="cyan" d="M36.85,-145.12C40.93,-134.14 44.73,-119.56 46.47,-108.29"/>
</g>
<!-- 14&#45;&gt;14 -->
<g id="edge18" class="edge">
<title>14&#45;&gt;14</title>
<path fill="none" stroke="black" d="M136.9,-102.43C149.69,-105.68 162,-101.53 162,-90 162,-78.47 149.69,-74.32 136.9,-77.57"/>
</g>
<!-- 18&#45;&gt;22 -->
<g id="edge22" class="edge">
<title>18&#45;&gt;22</title>
<path fill="none" stroke="green" d="M66.25,-78.78C71.08,-76.51 76.2,-74.14 81,-72 116.98,-55.95 159.27,-38.43 184.57,-28.09"/>
</g>
<!-- 17&#45;&gt;22 -->
<g id="edge19" class="edge">
<title>17&#45;&gt;22</title>
<path fill="none" stroke="black" d="M195.56,-73.46C192.81,-61.86 192.81,-46.08 195.57,-34.49"/>
</g>
<!-- 17&#45;&gt;22 -->
<g id="edge20" class="edge">
<title>17&#45;&gt;22</title>
<path fill="none" stroke="red" d="M207,-71.7C207,-60.85 207,-46.92 207,-36.1"/>
</g>
<!-- 17&#45;&gt;22 -->
<g id="edge21" class="edge">
<title>17&#45;&gt;22</title>
<path fill="none" stroke="cyan" d="M218.44,-73.46C221.19,-61.86 221.19,-46.08 218.43,-34.49"/>
</g>
<!-- 9 -->
<g id="node8" class="node">
<title>9</title>
<ellipse fill="none" stroke="black" cx="117" cy="-162" rx="27" ry="18"/>
<text text-anchor="middle" x="117" y="-158.3" font-family="Times,serif" font-size="14.00">9</text>
</g>
<!-- 9&#45;&gt;14 -->
<g id="edge16" class="edge">
<title>9&#45;&gt;14</title>
<path fill="none" stroke="purple" d="M111.16,-144.41C109.96,-133.41 109.95,-119.03 111.12,-107.96"/>
</g>
<!-- 9&#45;&gt;14 -->
<g id="edge17" class="edge">
<title>9&#45;&gt;14</title>
<path fill="none" stroke="cyan" d="M122.84,-144.41C124.04,-133.41 124.05,-119.03 122.88,-107.96"/>
</g>
<!-- 9&#45;&gt;18 -->
<g id="edge13" class="edge">
<title>9&#45;&gt;18</title>
<path fill="none" stroke="black" d="M98.81,-148.49C85.09,-136.85 67.05,-119.45 55.54,-106.85"/>
</g>
<!-- 9&#45;&gt;18 -->
<g id="edge14" class="edge">
<title>9&#45;&gt;18</title>
<path fill="none" stroke="red" d="M106.42,-145.12C94.93,-132.53 76.95,-115.19 63.24,-103.56"/>
</g>
<!-- 9&#45;&gt;17 -->
<g id="edge15" class="edge">
<title>9&#45;&gt;17</title>
<path fill="none" stroke="green" d="M133.93,-147.83C150.02,-135.32 174.08,-116.6 190.15,-104.11"/>
</g>
</g>
</svg>
