<?xml version="1.0" encoding="UTF-8" standalone="no"?>
<!DOCTYPE svg PUBLIC "-//W3C//DTD SVG 1.1//EN"
 "http://www.w3.org/Graphics/SVG/1.1/DTD/svg11.dtd">
<!-- Generated by graphviz version 2.43.0 (0)
 -->
<!-- Title: G Pages: 1 -->
<svg width="290pt" height="404pt"
 viewBox="0.00 0.00 290.00 404.00" xmlns="http://www.w3.org/2000/svg" xmlns:xlink="http://www.w3.org/1999/xlink">
<g id="graph0" class="graph" transform="scale(1 1) rotate(0) translate(4 400)">
<title>G</title>
<polygon fill="white" stroke="transparent" points="-4,4 -4,-400 286,-400 286,4 -4,4"/>
<!-- 3 -->
<g id="node1" class="node">
<title>3</title>
<ellipse fill="none" stroke="black" cx="55" cy="-378" rx="27" ry="18"/>
<text text-anchor="middle" x="55" y="-374.3" font-family="Times,serif" font-size="14.00">3</text>
</g>
<!-- 4 -->
<g id="node2" class="node">
<title>4</title>
<ellipse fill="none" stroke="black" cx="55" cy="-306" rx="27" ry="18"/>
<text text-anchor="middle" x="55" y="-302.3" font-family="Times,serif" font-size="14.00">4</text>
</g>
<!-- 3&#45;&gt;4 -->
<g id="edge1" class="edge">
<title>3&#45;&gt;4</title>
<path fill="none" stroke="black" d="M49.16,-360.41C47.96,-349.41 47.95,-335.03 49.12,-323.96"/>
</g>
<!-- 3&#45;&gt;4 -->
<g id="edge3" class="edge">
<title>3&#45;&gt;4</title>
<path fill="none" stroke="green" d="M60.84,-360.41C62.04,-349.41 62.05,-335.03 60.88,-323.96"/>
</g>
<!-- 12 -->
<g id="node3" class="node">
<title>12</title>
<ellipse fill="none" stroke="black" cx="119" cy="-162" rx="27" ry="18"/>
<text text-anchor="middle" x="119" y="-158.3" font-family="Times,serif" font-size="14.00">12</text>
</g>
<!-- 3&#45;&gt;12 -->
<g id="edge2" class="edge">
<title>3&#45;&gt;12</title>
<path fill="none" stroke="red" d="M61.12,-360.4C67.66,-350.45 76.66,-337.2 82,-324 102.22,-274.03 107.85,-209.55 113.09,-179.62"/>
</g>
<!-- 3&#45;&gt;12 -->
<g id="edge5" class="edge">
<title>3&#45;&gt;12</title>
<path fill="none" stroke="cyan" d="M73.19,-364.39C83.06,-354.18 93.91,-339.05 100,-324 120.11,-274.29 125.79,-210.23 123.76,-180.1"/>
</g>
<!-- 20 -->
<g id="node4" class="node">
<title>20</title>
<ellipse fill="none" stroke="black" cx="219" cy="-18" rx="27" ry="18"/>
<text text-anchor="middle" x="219" y="-14.3" font-family="Times,serif" font-size="14.00">20</text>
</g>
<!-- 3&#45;&gt;20 -->
<g id="edge4" class="edge">
<title>3&#45;&gt;20</title>
<path fill="none" stroke="purple" d="M42.25,-361.7C34.44,-351.59 24.85,-337.71 19,-324 3.12,-286.8 0,-275.45 0,-235 0,-235 0,-235 0,-161 0,-69.92 135.01,-34.32 193.02,-23.23"/>
</g>
<!-- 8 -->
<g id="node5" class="node">
<title>8</title>
<ellipse fill="none" stroke="black" cx="183" cy="-234" rx="27" ry="18"/>
<text text-anchor="middle" x="183" y="-230.3" font-family="Times,serif" font-size="14.00">8</text>
</g>
<!-- 4&#45;&gt;8 -->
<g id="edge6" class="edge">
<title>4&#45;&gt;8</title>
<path fill="none" stroke="red" d="M75.28,-293.91C99.25,-280.8 138.89,-259.12 162.81,-246.04"/>
</g>
<!-- 19 -->
<g id="node6" class="node">
<title>19</title>
<ellipse fill="none" stroke="black" cx="164" cy="-90" rx="27" ry="18"/>
<text text-anchor="middle" x="164" y="-86.3" font-family="Times,serif" font-size="14.00">19</text>
</g>
<!-- 4&#45;&gt;19 -->
<g id="edge7" class="edge">
<title>4&#45;&gt;19</title>
<path fill="none" stroke="purple" d="M48.56,-288.38C43.28,-257.32 44.07,-189.51 74,-144 89.15,-120.97 118.13,-105.7 139.37,-97.69"/>
</g>
<!-- 4&#45;&gt;19 -->
<g id="edge8" class="edge">
<title>4&#45;&gt;19</title>
<path fill="none" stroke="cyan" d="M59,-287.89C61.29,-256.61 62.22,-189.27 92,-144 104.65,-124.76 126.96,-110.94 143.59,-102.24"/>
</g>
<!-- 8&#45;&gt;12 -->
<g id="edge9" class="edge">
<title>8&#45;&gt;12</title>
<path fill="none" stroke="black" d="M165.55,-219.83C153.33,-208.27 137.79,-191.41 127.9,-179.06"/>
</g>
<!-- 8&#45;&gt;12 -->
<g id="edge10" class="edge">
<title>8&#45;&gt;12</title>
<path fill="none" stroke="green" d="M173.96,-216.76C164.11,-204.49 148.76,-187.83 136.62,-176.33"/>
</g>
<!-- 15 -->
<g id="node7" class="node">
<title>15</title>
<ellipse fill="none" stroke="black" cx="191" cy="-162" rx="27" ry="18"/>
<text text-anchor="middle" x="191" y="-158.3" font-family="Times,serif" font-size="14.00">15</text>
</g>
<!-- 8&#45;&gt;15 -->
<g id="edge11" class="edge">
<title>8&#45;&gt;15</title>
<path fill="none" stroke="purple" d="M179.06,-216.05C179.15,-204.89 180.83,-190.34 183.33,-179.31"/>
</g>
<!-- 8&#45;&gt;15 -->
<g id="edge12" class="edge">
<title>8&#45;&gt;15</title>
<path fill="none" stroke="cyan" d="M190.74,-216.41C193.19,-205.41 194.85,-191.03 194.94,-179.96"/>
</g>
<!-- 19&#45;&gt;20 -->
<g id="edge20" class="edge">
<title>19&#45;&gt;20</title>
<path fill="none" stroke="green" d="M175.93,-73.81C185.16,-62.07 197.87,-45.89 207.09,-34.16"/>
</g>
<!-- 15&#45;&gt;20 -->
<g id="edge18" class="edge">
<title>15&#45;&gt;20</title>
<path fill="none" stroke="black" d="M194.38,-143.87C199.76,-116.58 210.22,-63.52 215.61,-36.19"/>
</g>
<!-- 15&#45;&gt;19 -->
<g id="edge19" class="edge">
<title>15&#45;&gt;19</title>
<path fill="none" stroke="red" d="M184.6,-144.41C180.36,-133.41 174.81,-119.03 170.54,-107.96"/>
</g>
<!-- 11 -->
<g id="node8" class="node">
<title>11</title>
<ellipse fill="none" stroke="black" cx="255" cy="-234" rx="27" ry="18"/>
<text text-anchor="middle" x="255" y="-230.3" font-family="Times,serif" font-size="14.00">11</text>
</g>
<!-- 11&#45;&gt;12 -->
<g id="edge16" class="edge">
<title>11&#45;&gt;12</title>
<path fill="none" stroke="purple" d="M234.34,-222.37C208.78,-209.21 165.5,-186.93 139.85,-173.73"/>
</g>
<!-- 11&#45;&gt;20 -->
<g id="edge14" class="edge">
<title>11&#45;&gt;20</title>
<path fill="none" stroke="red" d="M248.08,-216.51C245.22,-198.57 243.83,-169.11 240,-144 234.04,-104.95 221.98,-60.14 218.08,-36.21"/>
</g>
<!-- 11&#45;&gt;20 -->
<g id="edge17" class="edge">
<title>11&#45;&gt;20</title>
<path fill="none" stroke="cyan" d="M261.38,-216.18C263.2,-198.21 261.81,-168.95 258,-144 251.91,-104.07 239.43,-58.12 229.47,-34.62"/>
</g>
<!-- 11&#45;&gt;19 -->
<g id="edge13" class="edge">
<title>11&#45;&gt;19</title>
<path fill="none" stroke="black" d="M252.58,-216.03C249.26,-197.15 241.92,-166.37 227,-144 215.66,-126.99 197.33,-112.45 183.36,-102.92"/>
</g>
<!-- 11&#45;&gt;15 -->
<g id="edge15" class="edge">
<title>11&#45;&gt;15</title>
<path fill="none" stroke="green" d="M241.43,-218.15C230.57,-206.28 215.41,-189.7 204.55,-177.82"/>
</g>
</g>
</svg>
