<?xml version="1.0" encoding="UTF-8" standalone="no"?>
<!DOCTYPE svg PUBLIC "-//W3C//DTD SVG 1.1//EN"
 "http://www.w3.org/Graphics/SVG/1.1/DTD/svg11.dtd">
<!-- Generated by graphviz version 2.43.0 (0)
 -->
<!-- Title: G Pages: 1 -->
<svg width="350pt" height="116pt"
 viewBox="0.00 0.00 350.00 116.00" xmlns="http://www.w3.org/2000/svg" xmlns:xlink="http://www.w3.org/1999/xlink">
<g id="graph0" class="graph" transform="scale(1 1) rotate(0) translate(4 112)">
<title>G</title>
<polygon fill="white" stroke="transparent" points="-4,4 -4,-112 346,-112 346,4 -4,4"/>
<!-- 0 -->
<g id="node1" class="node">
<title>0</title>
<ellipse fill="none" stroke="black" cx="27" cy="-90" rx="27" ry="18"/>
<text text-anchor="middle" x="27" y="-86.3" font-family="Times,serif" font-size="14.00">0</text>
</g>
<!-- 0&#45;&gt;0 -->
<g id="edge1" class="edge">
<title>0&#45;&gt;0</title>
<path fill="none" stroke="black" d="M53.35,-94.48C63.53,-94.68 72,-93.19 72,-90 72,-86.81 63.53,-85.32 53.35,-85.52"/>
</g>
<!-- 0&#45;&gt;0 -->
<g id="edge2" class="edge">
<title>0&#45;&gt;0</title>
<path fill="none" stroke="red" d="M51.57,-97.84C70.6,-100.77 90,-98.16 90,-90 90,-81.84 70.6,-79.23 51.57,-82.16"/>
</g>
<!-- 0&#45;&gt;0 -->
<g id="edge3" class="edge">
<title>0&#45;&gt;0</title>
<path fill="none" stroke="green" d="M49.8,-99.8C76.67,-106.98 108,-103.71 108,-90 108,-76.29 76.67,-73.02 49.8,-80.2"/>
</g>
<!-- 7 -->
<g id="node2" class="node">
<title>7</title>
<ellipse fill="none" stroke="black" cx="153" cy="-90" rx="27" ry="18"/>
<text text-anchor="middle" x="153" y="-86.3" font-family="Times,serif" font-size="14.00">7</text>
</g>
<!-- 7&#45;&gt;7 -->
<g id="edge4" class="edge">
<title>7&#45;&gt;7</title>
<path fill="none" stroke="black" d="M178.44,-96.69C189.03,-97.15 198,-94.92 198,-90 198,-85.08 189.03,-82.85 178.44,-83.31"/>
</g>
<!-- 7&#45;&gt;7 -->
<g id="edge5" class="edge">
<title>7&#45;&gt;7</title>
<path fill="none" stroke="red" d="M174.63,-101.01C194.54,-106.54 216,-102.87 216,-90 216,-77.13 194.54,-73.46 174.63,-78.99"/>
</g>
<!-- 16 -->
<g id="node3" class="node">
<title>16</title>
<ellipse fill="none" stroke="black" cx="153" cy="-18" rx="27" ry="18"/>
<text text-anchor="middle" x="153" y="-14.3" font-family="Times,serif" font-size="14.00">16</text>
</g>
<!-- 7&#45;&gt;16 -->
<g id="edge6" class="edge">
<title>7&#45;&gt;16</title>
<path fill="none" stroke="green" d="M153,-71.7C153,-60.85 153,-46.92 153,-36.1"/>
</g>
<!-- 16&#45;&gt;16 -->
<g id="edge7" class="edge">
<title>16&#45;&gt;16</title>
<path fill="none" stroke="black" d="M178.44,-24.69C189.03,-25.15 198,-22.92 198,-18 198,-13.08 189.03,-10.85 178.44,-11.31"/>
</g>
<!-- 16&#45;&gt;16 -->
<g id="edge8" class="edge">
<title>16&#45;&gt;16</title>
<path fill="none" stroke="red" d="M174.63,-29.01C194.54,-34.54 216,-30.87 216,-18 216,-5.13 194.54,-1.46 174.63,-6.99"/>
</g>
<!-- 23 -->
<g id="node4" class="node">
<title>23</title>
<ellipse fill="none" stroke="black" cx="261" cy="-90" rx="27" ry="18"/>
<text text-anchor="middle" x="261" y="-86.3" font-family="Times,serif" font-size="14.00">23</text>
</g>
<!-- 23&#45;&gt;23 -->
<g id="edge9" class="edge">
<title>23&#45;&gt;23</title>
<path fill="none" stroke="black" d="M287.35,-94.48C297.53,-94.68 306,-93.19 306,-90 306,-86.81 297.53,-85.32 287.35,-85.52"/>
</g>
<!-- 23&#45;&gt;23 -->
<g id="edge10" class="edge">
<title>23&#45;&gt;23</title>
<path fill="none" stroke="red" d="M285.57,-97.84C304.6,-100.77 324,-98.16 324,-90 324,-81.84 304.6,-79.23 285.57,-82.16"/>
</g>
<!-- 23&#45;&gt;23 -->
<g id="edge11" class="edge">
<title>23&#45;&gt;23</title>
<path fill="none" stroke="green" d="M283.8,-99.8C310.67,-106.98 342,-103.71 342,-90 342,-76.29 310.67,-73.02 283.8,-80.2"/>
</g>
</g>
</svg>
