<?xml version="1.0" encoding="UTF-8" standalone="no"?>
<!DOCTYPE svg PUBLIC "-//W3C//DTD SVG 1.1//EN"
 "http://www.w3.org/Graphics/SVG/1.1/DTD/svg11.dtd">
<!-- Generated by graphviz version 2.43.0 (0)
 -->
<!-- Title: G Pages: 1 -->
<svg width="82pt" height="260pt"
 viewBox="0.00 0.00 81.58 260.00" xmlns="http://www.w3.org/2000/svg" xmlns:xlink="http://www.w3.org/1999/xlink">
<g id="graph0" class="graph" transform="scale(1 1) rotate(0) translate(4 256)">
<title>G</title>
<polygon fill="white" stroke="transparent" points="-4,4 -4,-256 77.58,-256 77.58,4 -4,4"/>
<!-- 3 -->
<g id="node1" class="node">
<title>3</title>
<ellipse fill="none" stroke="black" cx="27" cy="-234" rx="27" ry="18"/>
<text text-anchor="middle" x="27" y="-230.3" font-family="Times,serif" font-size="14.00">3</text>
</g>
<!-- 4 -->
<g id="node2" class="node">
<title>4</title>
<ellipse fill="none" stroke="black" cx="27" cy="-162" rx="27" ry="18"/>
<text text-anchor="middle" x="27" y="-158.3" font-family="Times,serif" font-size="14.00">4</text>
</g>
<!-- 3&#45;&gt;4 -->
<g id="edge1" class="edge">
<title>3&#45;&gt;4</title>
<path fill="none" stroke="black" d="M21.16,-216.41C19.96,-205.41 19.95,-191.03 21.12,-179.96"/>
</g>
<!-- 3&#45;&gt;4 -->
<g id="edge3" class="edge">
<title>3&#45;&gt;4</title>
<path fill="none" stroke="green" d="M32.84,-216.41C34.04,-205.41 34.05,-191.03 32.88,-179.96"/>
</g>
<!-- 12 -->
<g id="node3" class="node">
<title>12</title>
<ellipse fill="none" stroke="black" cx="27" cy="-18" rx="27" ry="18"/>
<text text-anchor="middle" x="27" y="-14.3" font-family="Times,serif" font-size="14.00">12</text>
</g>
<!-- 3&#45;&gt;12 -->
<g id="edge2" class="edge">
<title>3&#45;&gt;12</title>
<path fill="none" stroke="red" d="M40.75,-218.07C48.96,-208.1 58.62,-194.25 63,-180 77.11,-134.12 77.11,-117.88 63,-72 58.62,-57.75 48.96,-43.9 40.75,-33.93"/>
</g>
<!-- 8 -->
<g id="node4" class="node">
<title>8</title>
<ellipse fill="none" stroke="black" cx="27" cy="-90" rx="27" ry="18"/>
<text text-anchor="middle" x="27" y="-86.3" font-family="Times,serif" font-size="14.00">8</text>
</g>
<!-- 4&#45;&gt;8 -->
<g id="edge4" class="edge">
<title>4&#45;&gt;8</title>
<path fill="none" stroke="red" d="M27,-143.7C27,-132.85 27,-118.92 27,-108.1"/>
</g>
<!-- 8&#45;&gt;12 -->
<g id="edge5" class="edge">
<title>8&#45;&gt;12</title>
<path fill="none" stroke="black" d="M21.16,-72.41C19.96,-61.41 19.95,-47.03 21.12,-35.96"/>
</g>
<!-- 8&#45;&gt;12 -->
<g id="edge6" class="edge">
<title>8&#45;&gt;12</title>
<path fill="none" stroke="green" d="M32.84,-72.41C34.04,-61.41 34.05,-47.03 32.88,-35.96"/>
</g>
</g>
</svg>
