<?xml version="1.0" encoding="UTF-8" standalone="no"?>
<!DOCTYPE svg PUBLIC "-//W3C//DTD SVG 1.1//EN"
 "http://www.w3.org/Graphics/SVG/1.1/DTD/svg11.dtd">
<!-- Generated by graphviz version 2.43.0 (0)
 -->
<!-- Title: G Pages: 1 -->
<svg width="122pt" height="260pt"
 viewBox="0.00 0.00 122.47 260.00" xmlns="http://www.w3.org/2000/svg" xmlns:xlink="http://www.w3.org/1999/xlink">
<g id="graph0" class="graph" transform="scale(1 1) rotate(0) translate(4 256)">
<title>G</title>
<polygon fill="white" stroke="transparent" points="-4,4 -4,-256 118.47,-256 118.47,4 -4,4"/>
<!-- 11 -->
<g id="node1" class="node">
<title>11</title>
<ellipse fill="none" stroke="black" cx="32.47" cy="-234" rx="27" ry="18"/>
<text text-anchor="middle" x="32.47" y="-230.3" font-family="Times,serif" font-size="14.00">11</text>
</g>
<!-- 19 -->
<g id="node2" class="node">
<title>19</title>
<ellipse fill="none" stroke="black" cx="41.47" cy="-90" rx="27" ry="18"/>
<text text-anchor="middle" x="41.47" y="-86.3" font-family="Times,serif" font-size="14.00">19</text>
</g>
<!-- 11&#45;&gt;19 -->
<g id="edge1" class="edge">
<title>11&#45;&gt;19</title>
<path fill="none" stroke="black" d="M33.56,-215.87C35.29,-188.58 38.65,-135.52 40.38,-108.19"/>
</g>
<!-- 20 -->
<g id="node3" class="node">
<title>20</title>
<ellipse fill="none" stroke="black" cx="41.47" cy="-18" rx="27" ry="18"/>
<text text-anchor="middle" x="41.47" y="-14.3" font-family="Times,serif" font-size="14.00">20</text>
</g>
<!-- 11&#45;&gt;20 -->
<g id="edge2" class="edge">
<title>11&#45;&gt;20</title>
<path fill="none" stroke="red" d="M24.86,-216.68C12.18,-187.23 -10.35,-123.47 5.47,-72 9.85,-57.75 19.51,-43.9 27.72,-33.93"/>
</g>
<!-- 15 -->
<g id="node4" class="node">
<title>15</title>
<ellipse fill="none" stroke="black" cx="87.47" cy="-162" rx="27" ry="18"/>
<text text-anchor="middle" x="87.47" y="-158.3" font-family="Times,serif" font-size="14.00">15</text>
</g>
<!-- 11&#45;&gt;15 -->
<g id="edge3" class="edge">
<title>11&#45;&gt;15</title>
<path fill="none" stroke="green" d="M44.41,-217.81C53.63,-206.07 66.34,-189.89 75.56,-178.16"/>
</g>
<!-- 19&#45;&gt;20 -->
<g id="edge6" class="edge">
<title>19&#45;&gt;20</title>
<path fill="none" stroke="green" d="M41.47,-71.7C41.47,-60.85 41.47,-46.92 41.47,-36.1"/>
</g>
<!-- 15&#45;&gt;19 -->
<g id="edge5" class="edge">
<title>15&#45;&gt;19</title>
<path fill="none" stroke="red" d="M77.04,-145.12C69.51,-133.66 59.39,-118.26 51.87,-106.82"/>
</g>
<!-- 15&#45;&gt;20 -->
<g id="edge4" class="edge">
<title>15&#45;&gt;20</title>
<path fill="none" stroke="black" d="M87.95,-143.71C87.92,-125.35 86.27,-95.77 77.47,-72 72.3,-58.02 62.68,-44.15 54.69,-34.11"/>
</g>
</g>
</svg>
