<?xml version="1.0" encoding="UTF-8" standalone="no"?>
<!DOCTYPE svg PUBLIC "-//W3C//DTD SVG 1.1//EN"
 "http://www.w3.org/Graphics/SVG/1.1/DTD/svg11.dtd">
<!-- Generated by graphviz version 2.43.0 (0)
 -->
<!-- Title: G Pages: 1 -->
<svg width="1137pt" height="260pt"
 viewBox="0.00 0.00 1137.00 260.00" xmlns="http://www.w3.org/2000/svg" xmlns:xlink="http://www.w3.org/1999/xlink">
<g id="graph0" class="graph" transform="scale(1 1) rotate(0) translate(4 256)">
<title>G</title>
<polygon fill="white" stroke="transparent" points="-4,4 -4,-256 1133,-256 1133,4 -4,4"/>
<!-- 0 -->
<g id="node1" class="node">
<title>0</title>
<ellipse fill="none" stroke="black" cx="27" cy="-234" rx="27" ry="18"/>
<text text-anchor="middle" x="27" y="-230.3" font-family="Times,serif" font-size="14.00">0</text>
</g>
<!-- 0&#45;&gt;0 -->
<g id="edge1" class="edge">
<title>0&#45;&gt;0</title>
<path fill="none" stroke="black" d="M53.35,-238.48C63.53,-238.68 72,-237.19 72,-234 72,-230.81 63.53,-229.32 53.35,-229.52"/>
</g>
<!-- 0&#45;&gt;0 -->
<g id="edge2" class="edge">
<title>0&#45;&gt;0</title>
<path fill="none" stroke="red" d="M51.57,-241.84C70.6,-244.77 90,-242.16 90,-234 90,-225.84 70.6,-223.23 51.57,-226.16"/>
</g>
<!-- 0&#45;&gt;0 -->
<g id="edge3" class="edge">
<title>0&#45;&gt;0</title>
<path fill="none" stroke="green" d="M49.8,-243.8C76.67,-250.98 108,-247.71 108,-234 108,-220.29 76.67,-217.02 49.8,-224.2"/>
</g>
<!-- 1 -->
<g id="node2" class="node">
<title>1</title>
<ellipse fill="none" stroke="black" cx="153" cy="-234" rx="27" ry="18"/>
<text text-anchor="middle" x="153" y="-230.3" font-family="Times,serif" font-size="14.00">1</text>
</g>
<!-- 1&#45;&gt;1 -->
<g id="edge4" class="edge">
<title>1&#45;&gt;1</title>
<path fill="none" stroke="black" d="M172.9,-246.43C185.69,-249.68 198,-245.53 198,-234 198,-222.47 185.69,-218.32 172.9,-221.57"/>
</g>
<!-- 6 -->
<g id="node3" class="node">
<title>6</title>
<ellipse fill="none" stroke="black" cx="108" cy="-162" rx="27" ry="18"/>
<text text-anchor="middle" x="108" y="-158.3" font-family="Times,serif" font-size="14.00">6</text>
</g>
<!-- 1&#45;&gt;6 -->
<g id="edge5" class="edge">
<title>1&#45;&gt;6</title>
<path fill="none" stroke="red" d="M142.79,-217.12C135.42,-205.66 125.53,-190.26 118.17,-178.82"/>
</g>
<!-- 5 -->
<g id="node4" class="node">
<title>5</title>
<ellipse fill="none" stroke="black" cx="198" cy="-162" rx="27" ry="18"/>
<text text-anchor="middle" x="198" y="-158.3" font-family="Times,serif" font-size="14.00">5</text>
</g>
<!-- 1&#45;&gt;5 -->
<g id="edge6" class="edge">
<title>1&#45;&gt;5</title>
<path fill="none" stroke="green" d="M163.21,-217.12C170.58,-205.66 180.47,-190.26 187.83,-178.82"/>
</g>
<!-- 6&#45;&gt;6 -->
<g id="edge16" class="edge">
<title>6&#45;&gt;6</title>
<path fill="none" stroke="black" d="M127.9,-174.43C140.69,-177.68 153,-173.53 153,-162 153,-150.47 140.69,-146.32 127.9,-149.57"/>
</g>
<!-- 14 -->
<g id="node10" class="node">
<title>14</title>
<ellipse fill="none" stroke="black" cx="153" cy="-90" rx="27" ry="18"/>
<text text-anchor="middle" x="153" y="-86.3" font-family="Times,serif" font-size="14.00">14</text>
</g>
<!-- 6&#45;&gt;14 -->
<g id="edge17" class="edge">
<title>6&#45;&gt;14</title>
<path fill="none" stroke="green" d="M118.21,-145.12C125.58,-133.66 135.47,-118.26 142.83,-106.82"/>
</g>
<!-- 5&#45;&gt;5 -->
<g id="edge14" class="edge">
<title>5&#45;&gt;5</title>
<path fill="none" stroke="black" d="M217.9,-174.43C230.69,-177.68 243,-173.53 243,-162 243,-150.47 230.69,-146.32 217.9,-149.57"/>
</g>
<!-- 5&#45;&gt;14 -->
<g id="edge15" class="edge">
<title>5&#45;&gt;14</title>
<path fill="none" stroke="red" d="M187.79,-145.12C180.42,-133.66 170.53,-118.26 163.17,-106.82"/>
</g>
<!-- 2 -->
<g id="node5" class="node">
<title>2</title>
<ellipse fill="none" stroke="black" cx="243" cy="-234" rx="27" ry="18"/>
<text text-anchor="middle" x="243" y="-230.3" font-family="Times,serif" font-size="14.00">2</text>
</g>
<!-- 2&#45;&gt;2 -->
<g id="edge7" class="edge">
<title>2&#45;&gt;2</title>
<path fill="none" stroke="black" d="M269.35,-238.48C279.53,-238.68 288,-237.19 288,-234 288,-230.81 279.53,-229.32 269.35,-229.52"/>
</g>
<!-- 2&#45;&gt;2 -->
<g id="edge8" class="edge">
<title>2&#45;&gt;2</title>
<path fill="none" stroke="red" d="M267.57,-241.84C286.6,-244.77 306,-242.16 306,-234 306,-225.84 286.6,-223.23 267.57,-226.16"/>
</g>
<!-- 2&#45;&gt;2 -->
<g id="edge9" class="edge">
<title>2&#45;&gt;2</title>
<path fill="none" stroke="green" d="M265.8,-243.8C292.67,-250.98 324,-247.71 324,-234 324,-220.29 292.67,-217.02 265.8,-224.2"/>
</g>
<!-- 3 -->
<g id="node6" class="node">
<title>3</title>
<ellipse fill="none" stroke="black" cx="369" cy="-234" rx="27" ry="18"/>
<text text-anchor="middle" x="369" y="-230.3" font-family="Times,serif" font-size="14.00">3</text>
</g>
<!-- 4 -->
<g id="node7" class="node">
<title>4</title>
<ellipse fill="none" stroke="black" cx="369" cy="-162" rx="27" ry="18"/>
<text text-anchor="middle" x="369" y="-158.3" font-family="Times,serif" font-size="14.00">4</text>
</g>
<!-- 3&#45;&gt;4 -->
<g id="edge10" class="edge">
<title>3&#45;&gt;4</title>
<path fill="none" stroke="black" d="M363.16,-216.41C361.96,-205.41 361.95,-191.03 363.12,-179.96"/>
</g>
<!-- 3&#45;&gt;4 -->
<g id="edge12" class="edge">
<title>3&#45;&gt;4</title>
<path fill="none" stroke="green" d="M374.84,-216.41C376.04,-205.41 376.05,-191.03 374.88,-179.96"/>
</g>
<!-- 12 -->
<g id="node8" class="node">
<title>12</title>
<ellipse fill="none" stroke="black" cx="369" cy="-18" rx="27" ry="18"/>
<text text-anchor="middle" x="369" y="-14.3" font-family="Times,serif" font-size="14.00">12</text>
</g>
<!-- 3&#45;&gt;12 -->
<g id="edge11" class="edge">
<title>3&#45;&gt;12</title>
<path fill="none" stroke="red" d="M382.75,-218.07C390.96,-208.1 400.62,-194.25 405,-180 419.11,-134.12 419.11,-117.88 405,-72 400.62,-57.75 390.96,-43.9 382.75,-33.93"/>
</g>
<!-- 8 -->
<g id="node9" class="node">
<title>8</title>
<ellipse fill="none" stroke="black" cx="369" cy="-90" rx="27" ry="18"/>
<text text-anchor="middle" x="369" y="-86.3" font-family="Times,serif" font-size="14.00">8</text>
</g>
<!-- 4&#45;&gt;8 -->
<g id="edge13" class="edge">
<title>4&#45;&gt;8</title>
<path fill="none" stroke="red" d="M369,-143.7C369,-132.85 369,-118.92 369,-108.1"/>
</g>
<!-- 8&#45;&gt;12 -->
<g id="edge21" class="edge">
<title>8&#45;&gt;12</title>
<path fill="none" stroke="black" d="M363.16,-72.41C361.96,-61.41 361.95,-47.03 363.12,-35.96"/>
</g>
<!-- 8&#45;&gt;12 -->
<g id="edge22" class="edge">
<title>8&#45;&gt;12</title>
<path fill="none" stroke="green" d="M374.84,-72.41C376.04,-61.41 376.05,-47.03 374.88,-35.96"/>
</g>
<!-- 14&#45;&gt;14 -->
<g id="edge33" class="edge">
<title>14&#45;&gt;14</title>
<path fill="none" stroke="black" d="M172.9,-102.43C185.69,-105.68 198,-101.53 198,-90 198,-78.47 185.69,-74.32 172.9,-77.57"/>
</g>
<!-- 7 -->
<g id="node11" class="node">
<title>7</title>
<ellipse fill="none" stroke="black" cx="479" cy="-234" rx="27" ry="18"/>
<text text-anchor="middle" x="479" y="-230.3" font-family="Times,serif" font-size="14.00">7</text>
</g>
<!-- 7&#45;&gt;7 -->
<g id="edge18" class="edge">
<title>7&#45;&gt;7</title>
<path fill="none" stroke="black" d="M504.44,-240.69C515.03,-241.15 524,-238.92 524,-234 524,-229.08 515.03,-226.85 504.44,-227.31"/>
</g>
<!-- 7&#45;&gt;7 -->
<g id="edge19" class="edge">
<title>7&#45;&gt;7</title>
<path fill="none" stroke="red" d="M500.63,-245.01C520.54,-250.54 542,-246.87 542,-234 542,-221.13 520.54,-217.46 500.63,-222.99"/>
</g>
<!-- 16 -->
<g id="node12" class="node">
<title>16</title>
<ellipse fill="none" stroke="black" cx="479" cy="-162" rx="27" ry="18"/>
<text text-anchor="middle" x="479" y="-158.3" font-family="Times,serif" font-size="14.00">16</text>
</g>
<!-- 7&#45;&gt;16 -->
<g id="edge20" class="edge">
<title>7&#45;&gt;16</title>
<path fill="none" stroke="green" d="M479,-215.7C479,-204.85 479,-190.92 479,-180.1"/>
</g>
<!-- 16&#45;&gt;16 -->
<g id="edge36" class="edge">
<title>16&#45;&gt;16</title>
<path fill="none" stroke="black" d="M504.44,-168.69C515.03,-169.15 524,-166.92 524,-162 524,-157.08 515.03,-154.85 504.44,-155.31"/>
</g>
<!-- 16&#45;&gt;16 -->
<g id="edge37" class="edge">
<title>16&#45;&gt;16</title>
<path fill="none" stroke="red" d="M500.63,-173.01C520.54,-178.54 542,-174.87 542,-162 542,-149.13 520.54,-145.46 500.63,-150.99"/>
</g>
<!-- 9 -->
<g id="node13" class="node">
<title>9</title>
<ellipse fill="none" stroke="black" cx="587" cy="-234" rx="27" ry="18"/>
<text text-anchor="middle" x="587" y="-230.3" font-family="Times,serif" font-size="14.00">9</text>
</g>
<!-- 18 -->
<g id="node14" class="node">
<title>18</title>
<ellipse fill="none" stroke="black" cx="587" cy="-162" rx="27" ry="18"/>
<text text-anchor="middle" x="587" y="-158.3" font-family="Times,serif" font-size="14.00">18</text>
</g>
<!-- 9&#45;&gt;18 -->
<g id="edge23" class="edge">
<title>9&#45;&gt;18</title>
<path fill="none" stroke="black" d="M581.16,-216.41C579.96,-205.41 579.95,-191.03 581.12,-179.96"/>
</g>
<!-- 9&#45;&gt;18 -->
<g id="edge24" class="edge">
<title>9&#45;&gt;18</title>
<path fill="none" stroke="red" d="M592.84,-216.41C594.04,-205.41 594.05,-191.03 592.88,-179.96"/>
</g>
<!-- 17 -->
<g id="node15" class="node">
<title>17</title>
<ellipse fill="none" stroke="black" cx="659" cy="-162" rx="27" ry="18"/>
<text text-anchor="middle" x="659" y="-158.3" font-family="Times,serif" font-size="14.00">17</text>
</g>
<!-- 9&#45;&gt;17 -->
<g id="edge25" class="edge">
<title>9&#45;&gt;17</title>
<path fill="none" stroke="green" d="M601.57,-218.83C613.98,-206.77 631.73,-189.51 644.2,-177.38"/>
</g>
<!-- 22 -->
<g id="node22" class="node">
<title>22</title>
<ellipse fill="none" stroke="black" cx="659" cy="-90" rx="27" ry="18"/>
<text text-anchor="middle" x="659" y="-86.3" font-family="Times,serif" font-size="14.00">22</text>
</g>
<!-- 18&#45;&gt;22 -->
<g id="edge40" class="edge">
<title>18&#45;&gt;22</title>
<path fill="none" stroke="green" d="M601.57,-146.83C613.98,-134.77 631.73,-117.51 644.2,-105.38"/>
</g>
<!-- 17&#45;&gt;22 -->
<g id="edge38" class="edge">
<title>17&#45;&gt;22</title>
<path fill="none" stroke="black" d="M653.16,-144.41C651.96,-133.41 651.95,-119.03 653.12,-107.96"/>
</g>
<!-- 17&#45;&gt;22 -->
<g id="edge39" class="edge">
<title>17&#45;&gt;22</title>
<path fill="none" stroke="red" d="M664.84,-144.41C666.04,-133.41 666.05,-119.03 664.88,-107.96"/>
</g>
<!-- 10 -->
<g id="node16" class="node">
<title>10</title>
<ellipse fill="none" stroke="black" cx="731" cy="-234" rx="27" ry="18"/>
<text text-anchor="middle" x="731" y="-230.3" font-family="Times,serif" font-size="14.00">10</text>
</g>
<!-- 10&#45;&gt;10 -->
<g id="edge27" class="edge">
<title>10&#45;&gt;10</title>
<path fill="none" stroke="red" d="M750.9,-246.43C763.69,-249.68 776,-245.53 776,-234 776,-222.47 763.69,-218.32 750.9,-221.57"/>
</g>
<!-- 13 -->
<g id="node17" class="node">
<title>13</title>
<ellipse fill="none" stroke="black" cx="731" cy="-162" rx="27" ry="18"/>
<text text-anchor="middle" x="731" y="-158.3" font-family="Times,serif" font-size="14.00">13</text>
</g>
<!-- 10&#45;&gt;13 -->
<g id="edge26" class="edge">
<title>10&#45;&gt;13</title>
<path fill="none" stroke="black" d="M725.16,-216.41C723.96,-205.41 723.95,-191.03 725.12,-179.96"/>
</g>
<!-- 10&#45;&gt;13 -->
<g id="edge28" class="edge">
<title>10&#45;&gt;13</title>
<path fill="none" stroke="green" d="M736.84,-216.41C738.04,-205.41 738.05,-191.03 736.88,-179.96"/>
</g>
<!-- 13&#45;&gt;13 -->
<g id="edge32" class="edge">
<title>13&#45;&gt;13</title>
<path fill="none" stroke="red" d="M750.9,-174.43C763.69,-177.68 776,-173.53 776,-162 776,-150.47 763.69,-146.32 750.9,-149.57"/>
</g>
<!-- 11 -->
<g id="node18" class="node">
<title>11</title>
<ellipse fill="none" stroke="black" cx="850" cy="-234" rx="27" ry="18"/>
<text text-anchor="middle" x="850" y="-230.3" font-family="Times,serif" font-size="14.00">11</text>
</g>
<!-- 19 -->
<g id="node19" class="node">
<title>19</title>
<ellipse fill="none" stroke="black" cx="859" cy="-90" rx="27" ry="18"/>
<text text-anchor="middle" x="859" y="-86.3" font-family="Times,serif" font-size="14.00">19</text>
</g>
<!-- 11&#45;&gt;19 -->
<g id="edge29" class="edge">
<title>11&#45;&gt;19</title>
<path fill="none" stroke="black" d="M851.09,-215.87C852.82,-188.58 856.18,-135.52 857.91,-108.19"/>
</g>
<!-- 20 -->
<g id="node20" class="node">
<title>20</title>
<ellipse fill="none" stroke="black" cx="859" cy="-18" rx="27" ry="18"/>
<text text-anchor="middle" x="859" y="-14.3" font-family="Times,serif" font-size="14.00">20</text>
</g>
<!-- 11&#45;&gt;20 -->
<g id="edge30" class="edge">
<title>11&#45;&gt;20</title>
<path fill="none" stroke="red" d="M842.39,-216.68C829.71,-187.23 807.17,-123.47 823,-72 827.38,-57.75 837.04,-43.9 845.25,-33.93"/>
</g>
<!-- 15 -->
<g id="node21" class="node">
<title>15</title>
<ellipse fill="none" stroke="black" cx="905" cy="-162" rx="27" ry="18"/>
<text text-anchor="middle" x="905" y="-158.3" font-family="Times,serif" font-size="14.00">15</text>
</g>
<!-- 11&#45;&gt;15 -->
<g id="edge31" class="edge">
<title>11&#45;&gt;15</title>
<path fill="none" stroke="green" d="M861.93,-217.81C871.16,-206.07 883.87,-189.89 893.09,-178.16"/>
</g>
<!-- 19&#45;&gt;20 -->
<g id="edge41" class="edge">
<title>19&#45;&gt;20</title>
<path fill="none" stroke="green" d="M859,-71.7C859,-60.85 859,-46.92 859,-36.1"/>
</g>
<!-- 15&#45;&gt;19 -->
<g id="edge35" class="edge">
<title>15&#45;&gt;19</title>
<path fill="none" stroke="red" d="M894.56,-145.12C887.03,-133.66 876.92,-118.26 869.4,-106.82"/>
</g>
<!-- 15&#45;&gt;20 -->
<g id="edge34" class="edge">
<title>15&#45;&gt;20</title>
<path fill="none" stroke="black" d="M905.48,-143.71C905.44,-125.35 903.79,-95.77 895,-72 889.83,-58.02 880.21,-44.15 872.21,-34.11"/>
</g>
<!-- 21 -->
<g id="node23" class="node">
<title>21</title>
<ellipse fill="none" stroke="black" cx="922" cy="-234" rx="27" ry="18"/>
<text text-anchor="middle" x="922" y="-230.3" font-family="Times,serif" font-size="14.00">21</text>
</g>
<!-- 21&#45;&gt;21 -->
<g id="edge42" class="edge">
<title>21&#45;&gt;21</title>
<path fill="none" stroke="black" d="M948.35,-238.48C958.53,-238.68 967,-237.19 967,-234 967,-230.81 958.53,-229.32 948.35,-229.52"/>
</g>
<!-- 21&#45;&gt;21 -->
<g id="edge43" class="edge">
<title>21&#45;&gt;21</title>
<path fill="none" stroke="red" d="M946.57,-241.84C965.6,-244.77 985,-242.16 985,-234 985,-225.84 965.6,-223.23 946.57,-226.16"/>
</g>
<!-- 21&#45;&gt;21 -->
<g id="edge44" class="edge">
<title>21&#45;&gt;21</title>
<path fill="none" stroke="green" d="M944.8,-243.8C971.67,-250.98 1003,-247.71 1003,-234 1003,-220.29 971.67,-217.02 944.8,-224.2"/>
</g>
<!-- 23 -->
<g id="node24" class="node">
<title>23</title>
<ellipse fill="none" stroke="black" cx="1048" cy="-234" rx="27" ry="18"/>
<text text-anchor="middle" x="1048" y="-230.3" font-family="Times,serif" font-size="14.00">23</text>
</g>
<!-- 23&#45;&gt;23 -->
<g id="edge45" class="edge">
<title>23&#45;&gt;23</title>
<path fill="none" stroke="black" d="M1074.35,-238.48C1084.53,-238.68 1093,-237.19 1093,-234 1093,-230.81 1084.53,-229.32 1074.35,-229.52"/>
</g>
<!-- 23&#45;&gt;23 -->
<g id="edge46" class="edge">
<title>23&#45;&gt;23</title>
<path fill="none" stroke="red" d="M1072.57,-241.84C1091.6,-244.77 1111,-242.16 1111,-234 1111,-225.84 1091.6,-223.23 1072.57,-226.16"/>
</g>
<!-- 23&#45;&gt;23 -->
<g id="edge47" class="edge">
<title>23&#45;&gt;23</title>
<path fill="none" stroke="green" d="M1070.8,-243.8C1097.67,-250.98 1129,-247.71 1129,-234 1129,-220.29 1097.67,-217.02 1070.8,-224.2"/>
</g>
</g>
</svg>
