<?xml version="1.0" encoding="UTF-8" standalone="no"?>
<!DOCTYPE svg PUBLIC "-//W3C//DTD SVG 1.1//EN"
 "http://www.w3.org/Graphics/SVG/1.1/DTD/svg11.dtd">
<!-- Generated by graphviz version 2.43.0 (0)
 -->
<!-- Title: G Pages: 1 -->
<svg width="1009pt" height="404pt"
 viewBox="0.00 0.00 1009.00 404.00" xmlns="http://www.w3.org/2000/svg" xmlns:xlink="http://www.w3.org/1999/xlink">
<g id="graph0" class="graph" transform="scale(1 1) rotate(0) translate(4 400)">
<title>G</title>
<polygon fill="white" stroke="transparent" points="-4,4 -4,-400 1005,-400 1005,4 -4,4"/>
<!-- 0 -->
<g id="node1" class="node">
<title>0</title>
<ellipse fill="none" stroke="black" cx="27" cy="-378" rx="27" ry="18"/>
<text text-anchor="middle" x="27" y="-374.3" font-family="Times,serif" font-size="14.00">0</text>
</g>
<!-- 0&#45;&gt;0 -->
<g id="edge1" class="edge">
<title>0&#45;&gt;0</title>
<path fill="none" stroke="black" d="M53.35,-382.48C63.53,-382.68 72,-381.19 72,-378 72,-374.81 63.53,-373.32 53.35,-373.52"/>
</g>
<!-- 0&#45;&gt;0 -->
<g id="edge2" class="edge">
<title>0&#45;&gt;0</title>
<path fill="none" stroke="red" d="M51.57,-385.84C70.6,-388.77 90,-386.16 90,-378 90,-369.84 70.6,-367.23 51.57,-370.16"/>
</g>
<!-- 0&#45;&gt;0 -->
<g id="edge3" class="edge">
<title>0&#45;&gt;0</title>
<path fill="none" stroke="green" d="M49.8,-387.8C76.67,-394.98 108,-391.71 108,-378 108,-364.29 76.67,-361.02 49.8,-368.2"/>
</g>
<!-- 23 -->
<g id="node2" class="node">
<title>23</title>
<ellipse fill="none" stroke="black" cx="27" cy="-306" rx="27" ry="18"/>
<text text-anchor="middle" x="27" y="-302.3" font-family="Times,serif" font-size="14.00">23</text>
</g>
<!-- 0&#45;&gt;23 -->
<g id="edge4" class="edge">
<title>0&#45;&gt;23</title>
<path fill="none" stroke="purple" d="M27,-359.7C27,-348.85 27,-334.92 27,-324.1"/>
</g>
<!-- 23&#45;&gt;23 -->
<g id="edge57" class="edge">
<title>23&#45;&gt;23</title>
<path fill="none" stroke="black" d="M53.35,-310.48C63.53,-310.68 72,-309.19 72,-306 72,-302.81 63.53,-301.32 53.35,-301.52"/>
</g>
<!-- 23&#45;&gt;23 -->
<g id="edge58" class="edge">
<title>23&#45;&gt;23</title>
<path fill="none" stroke="red" d="M51.57,-313.84C70.6,-316.77 90,-314.16 90,-306 90,-297.84 70.6,-295.23 51.57,-298.16"/>
</g>
<!-- 23&#45;&gt;23 -->
<g id="edge59" class="edge">
<title>23&#45;&gt;23</title>
<path fill="none" stroke="green" d="M49.8,-315.8C76.67,-322.98 108,-319.71 108,-306 108,-292.29 76.67,-289.02 49.8,-296.2"/>
</g>
<!-- 1 -->
<g id="node3" class="node">
<title>1</title>
<ellipse fill="none" stroke="black" cx="315" cy="-378" rx="27" ry="18"/>
<text text-anchor="middle" x="315" y="-374.3" font-family="Times,serif" font-size="14.00">1</text>
</g>
<!-- 1&#45;&gt;1 -->
<g id="edge5" class="edge">
<title>1&#45;&gt;1</title>
<path fill="none" stroke="black" d="M334.9,-390.43C347.69,-393.68 360,-389.53 360,-378 360,-366.47 347.69,-362.32 334.9,-365.57"/>
</g>
<!-- 6 -->
<g id="node4" class="node">
<title>6</title>
<ellipse fill="none" stroke="black" cx="153" cy="-306" rx="27" ry="18"/>
<text text-anchor="middle" x="153" y="-302.3" font-family="Times,serif" font-size="14.00">6</text>
</g>
<!-- 1&#45;&gt;6 -->
<g id="edge6" class="edge">
<title>1&#45;&gt;6</title>
<path fill="none" stroke="red" d="M292.81,-367.41C261.88,-354.05 206.11,-329.95 175.18,-316.58"/>
</g>
<!-- 5 -->
<g id="node5" class="node">
<title>5</title>
<ellipse fill="none" stroke="black" cx="315" cy="-306" rx="27" ry="18"/>
<text text-anchor="middle" x="315" y="-302.3" font-family="Times,serif" font-size="14.00">5</text>
</g>
<!-- 1&#45;&gt;5 -->
<g id="edge7" class="edge">
<title>1&#45;&gt;5</title>
<path fill="none" stroke="green" d="M315,-359.7C315,-348.85 315,-334.92 315,-324.1"/>
</g>
<!-- 22 -->
<g id="node6" class="node">
<title>22</title>
<ellipse fill="none" stroke="black" cx="234" cy="-162" rx="27" ry="18"/>
<text text-anchor="middle" x="234" y="-158.3" font-family="Times,serif" font-size="14.00">22</text>
</g>
<!-- 1&#45;&gt;22 -->
<g id="edge8" class="edge">
<title>1&#45;&gt;22</title>
<path fill="none" stroke="purple" d="M333.56,-364.86C346.18,-355.42 361.83,-341.08 369,-324 387.83,-279.13 382.17,-253.37 351,-216 327.72,-188.09 286.65,-174.23 259.89,-167.85"/>
</g>
<!-- 6&#45;&gt;6 -->
<g id="edge22" class="edge">
<title>6&#45;&gt;6</title>
<path fill="none" stroke="black" d="M172.9,-318.43C185.69,-321.68 198,-317.53 198,-306 198,-294.47 185.69,-290.32 172.9,-293.57"/>
</g>
<!-- 14 -->
<g id="node15" class="node">
<title>14</title>
<ellipse fill="none" stroke="black" cx="225" cy="-234" rx="27" ry="18"/>
<text text-anchor="middle" x="225" y="-230.3" font-family="Times,serif" font-size="14.00">14</text>
</g>
<!-- 6&#45;&gt;14 -->
<g id="edge23" class="edge">
<title>6&#45;&gt;14</title>
<path fill="none" stroke="green" d="M167.57,-290.83C179.98,-278.77 197.73,-261.51 210.2,-249.38"/>
</g>
<!-- 17 -->
<g id="node17" class="node">
<title>17</title>
<ellipse fill="none" stroke="black" cx="153" cy="-234" rx="27" ry="18"/>
<text text-anchor="middle" x="153" y="-230.3" font-family="Times,serif" font-size="14.00">17</text>
</g>
<!-- 6&#45;&gt;17 -->
<g id="edge24" class="edge">
<title>6&#45;&gt;17</title>
<path fill="none" stroke="purple" d="M153,-287.7C153,-276.85 153,-262.92 153,-252.1"/>
</g>
<!-- 5&#45;&gt;5 -->
<g id="edge19" class="edge">
<title>5&#45;&gt;5</title>
<path fill="none" stroke="black" d="M334.9,-318.43C347.69,-321.68 360,-317.53 360,-306 360,-294.47 347.69,-290.32 334.9,-293.57"/>
</g>
<!-- 5&#45;&gt;14 -->
<g id="edge20" class="edge">
<title>5&#45;&gt;14</title>
<path fill="none" stroke="red" d="M298.07,-291.83C281.98,-279.32 257.92,-260.6 241.85,-248.11"/>
</g>
<!-- 18 -->
<g id="node16" class="node">
<title>18</title>
<ellipse fill="none" stroke="black" cx="315" cy="-234" rx="27" ry="18"/>
<text text-anchor="middle" x="315" y="-230.3" font-family="Times,serif" font-size="14.00">18</text>
</g>
<!-- 5&#45;&gt;18 -->
<g id="edge21" class="edge">
<title>5&#45;&gt;18</title>
<path fill="none" stroke="purple" d="M315,-287.7C315,-276.85 315,-262.92 315,-252.1"/>
</g>
<!-- 2 -->
<g id="node7" class="node">
<title>2</title>
<ellipse fill="none" stroke="black" cx="443" cy="-378" rx="27" ry="18"/>
<text text-anchor="middle" x="443" y="-374.3" font-family="Times,serif" font-size="14.00">2</text>
</g>
<!-- 2&#45;&gt;2 -->
<g id="edge9" class="edge">
<title>2&#45;&gt;2</title>
<path fill="none" stroke="black" d="M469.35,-382.48C479.53,-382.68 488,-381.19 488,-378 488,-374.81 479.53,-373.32 469.35,-373.52"/>
</g>
<!-- 2&#45;&gt;2 -->
<g id="edge10" class="edge">
<title>2&#45;&gt;2</title>
<path fill="none" stroke="red" d="M467.57,-385.84C486.6,-388.77 506,-386.16 506,-378 506,-369.84 486.6,-367.23 467.57,-370.16"/>
</g>
<!-- 2&#45;&gt;2 -->
<g id="edge11" class="edge">
<title>2&#45;&gt;2</title>
<path fill="none" stroke="green" d="M465.8,-387.8C492.67,-394.98 524,-391.71 524,-378 524,-364.29 492.67,-361.02 465.8,-368.2"/>
</g>
<!-- 21 -->
<g id="node8" class="node">
<title>21</title>
<ellipse fill="none" stroke="black" cx="443" cy="-306" rx="27" ry="18"/>
<text text-anchor="middle" x="443" y="-302.3" font-family="Times,serif" font-size="14.00">21</text>
</g>
<!-- 2&#45;&gt;21 -->
<g id="edge12" class="edge">
<title>2&#45;&gt;21</title>
<path fill="none" stroke="purple" d="M443,-359.7C443,-348.85 443,-334.92 443,-324.1"/>
</g>
<!-- 21&#45;&gt;21 -->
<g id="edge54" class="edge">
<title>21&#45;&gt;21</title>
<path fill="none" stroke="black" d="M469.35,-310.48C479.53,-310.68 488,-309.19 488,-306 488,-302.81 479.53,-301.32 469.35,-301.52"/>
</g>
<!-- 21&#45;&gt;21 -->
<g id="edge55" class="edge">
<title>21&#45;&gt;21</title>
<path fill="none" stroke="red" d="M467.57,-313.84C486.6,-316.77 506,-314.16 506,-306 506,-297.84 486.6,-295.23 467.57,-298.16"/>
</g>
<!-- 21&#45;&gt;21 -->
<g id="edge56" class="edge">
<title>21&#45;&gt;21</title>
<path fill="none" stroke="green" d="M465.8,-315.8C492.67,-322.98 524,-319.71 524,-306 524,-292.29 492.67,-289.02 465.8,-296.2"/>
</g>
<!-- 3 -->
<g id="node9" class="node">
<title>3</title>
<ellipse fill="none" stroke="black" cx="673" cy="-378" rx="27" ry="18"/>
<text text-anchor="middle" x="673" y="-374.3" font-family="Times,serif" font-size="14.00">3</text>
</g>
<!-- 4 -->
<g id="node10" class="node">
<title>4</title>
<ellipse fill="none" stroke="black" cx="673" cy="-306" rx="27" ry="18"/>
<text text-anchor="middle" x="673" y="-302.3" font-family="Times,serif" font-size="14.00">4</text>
</g>
<!-- 3&#45;&gt;4 -->
<g id="edge13" class="edge">
<title>3&#45;&gt;4</title>
<path fill="none" stroke="black" d="M667.16,-360.41C665.96,-349.41 665.95,-335.03 667.12,-323.96"/>
</g>
<!-- 3&#45;&gt;4 -->
<g id="edge15" class="edge">
<title>3&#45;&gt;4</title>
<path fill="none" stroke="green" d="M678.84,-360.41C680.04,-349.41 680.05,-335.03 678.88,-323.96"/>
</g>
<!-- 12 -->
<g id="node11" class="node">
<title>12</title>
<ellipse fill="none" stroke="black" cx="552" cy="-162" rx="27" ry="18"/>
<text text-anchor="middle" x="552" y="-158.3" font-family="Times,serif" font-size="14.00">12</text>
</g>
<!-- 3&#45;&gt;12 -->
<g id="edge14" class="edge">
<title>3&#45;&gt;12</title>
<path fill="none" stroke="red" d="M657.51,-362.87C634.84,-341.27 592.93,-297.71 571,-252 559.79,-228.64 555.15,-198.68 553.25,-180.17"/>
</g>
<!-- 20 -->
<g id="node12" class="node">
<title>20</title>
<ellipse fill="none" stroke="black" cx="706" cy="-18" rx="27" ry="18"/>
<text text-anchor="middle" x="706" y="-14.3" font-family="Times,serif" font-size="14.00">20</text>
</g>
<!-- 3&#45;&gt;20 -->
<g id="edge16" class="edge">
<title>3&#45;&gt;20</title>
<path fill="none" stroke="purple" d="M693.09,-365.61C727.25,-344.59 793,-296.16 793,-235 793,-235 793,-235 793,-161 793,-120.14 791.91,-106.48 770,-72 758.86,-54.47 740,-39.89 725.63,-30.49"/>
</g>
<!-- 8 -->
<g id="node13" class="node">
<title>8</title>
<ellipse fill="none" stroke="black" cx="607" cy="-234" rx="27" ry="18"/>
<text text-anchor="middle" x="607" y="-230.3" font-family="Times,serif" font-size="14.00">8</text>
</g>
<!-- 4&#45;&gt;8 -->
<g id="edge17" class="edge">
<title>4&#45;&gt;8</title>
<path fill="none" stroke="red" d="M659,-290.15C647.8,-278.28 632.17,-261.7 620.98,-249.82"/>
</g>
<!-- 19 -->
<g id="node14" class="node">
<title>19</title>
<ellipse fill="none" stroke="black" cx="734" cy="-90" rx="27" ry="18"/>
<text text-anchor="middle" x="734" y="-86.3" font-family="Times,serif" font-size="14.00">19</text>
</g>
<!-- 4&#45;&gt;19 -->
<g id="edge18" class="edge">
<title>4&#45;&gt;19</title>
<path fill="none" stroke="purple" d="M688,-290.7C697.4,-280.78 708.87,-266.74 715,-252 735.41,-202.88 736.04,-138.53 734.97,-108.22"/>
</g>
<!-- 8&#45;&gt;12 -->
<g id="edge29" class="edge">
<title>8&#45;&gt;12</title>
<path fill="none" stroke="black" d="M590.94,-219.5C580.36,-208.06 567.31,-191.61 559.07,-179.41"/>
</g>
<!-- 8&#45;&gt;12 -->
<g id="edge30" class="edge">
<title>8&#45;&gt;12</title>
<path fill="none" stroke="green" d="M599.81,-216.41C591.6,-204.28 578.71,-188.03 568.2,-176.65"/>
</g>
<!-- 15 -->
<g id="node20" class="node">
<title>15</title>
<ellipse fill="none" stroke="black" cx="624" cy="-162" rx="27" ry="18"/>
<text text-anchor="middle" x="624" y="-158.3" font-family="Times,serif" font-size="14.00">15</text>
</g>
<!-- 8&#45;&gt;15 -->
<g id="edge31" class="edge">
<title>8&#45;&gt;15</title>
<path fill="none" stroke="purple" d="M611.12,-216.05C613.75,-205.21 617.16,-191.18 619.8,-180.28"/>
</g>
<!-- 19&#45;&gt;20 -->
<g id="edge53" class="edge">
<title>19&#45;&gt;20</title>
<path fill="none" stroke="green" d="M727.36,-72.41C722.9,-61.25 717.04,-46.6 712.59,-35.47"/>
</g>
<!-- 14&#45;&gt;14 -->
<g id="edge45" class="edge">
<title>14&#45;&gt;14</title>
<path fill="none" stroke="black" d="M244.9,-246.43C257.69,-249.68 270,-245.53 270,-234 270,-222.47 257.69,-218.32 244.9,-221.57"/>
</g>
<!-- 18&#45;&gt;22 -->
<g id="edge52" class="edge">
<title>18&#45;&gt;22</title>
<path fill="none" stroke="green" d="M299,-219.17C284.8,-206.9 264.16,-189.06 249.97,-176.8"/>
</g>
<!-- 17&#45;&gt;22 -->
<g id="edge50" class="edge">
<title>17&#45;&gt;22</title>
<path fill="none" stroke="black" d="M164.9,-217.81C178.22,-204.94 199.42,-186.75 214.99,-174.91"/>
</g>
<!-- 17&#45;&gt;22 -->
<g id="edge51" class="edge">
<title>17&#45;&gt;22</title>
<path fill="none" stroke="red" d="M171.96,-221.13C187.46,-209.35 208.57,-191.24 221.92,-178.37"/>
</g>
<!-- 7 -->
<g id="node18" class="node">
<title>7</title>
<ellipse fill="none" stroke="black" cx="848" cy="-378" rx="27" ry="18"/>
<text text-anchor="middle" x="848" y="-374.3" font-family="Times,serif" font-size="14.00">7</text>
</g>
<!-- 7&#45;&gt;7 -->
<g id="edge25" class="edge">
<title>7&#45;&gt;7</title>
<path fill="none" stroke="black" d="M873.44,-384.69C884.03,-385.15 893,-382.92 893,-378 893,-373.08 884.03,-370.85 873.44,-371.31"/>
</g>
<!-- 7&#45;&gt;7 -->
<g id="edge26" class="edge">
<title>7&#45;&gt;7</title>
<path fill="none" stroke="red" d="M869.63,-389.01C889.54,-394.54 911,-390.87 911,-378 911,-365.13 889.54,-361.46 869.63,-366.99"/>
</g>
<!-- 16 -->
<g id="node19" class="node">
<title>16</title>
<ellipse fill="none" stroke="black" cx="848" cy="-306" rx="27" ry="18"/>
<text text-anchor="middle" x="848" y="-302.3" font-family="Times,serif" font-size="14.00">16</text>
</g>
<!-- 7&#45;&gt;16 -->
<g id="edge27" class="edge">
<title>7&#45;&gt;16</title>
<path fill="none" stroke="green" d="M842.16,-360.41C840.96,-349.41 840.95,-335.03 842.12,-323.96"/>
</g>
<!-- 7&#45;&gt;16 -->
<g id="edge28" class="edge">
<title>7&#45;&gt;16</title>
<path fill="none" stroke="purple" d="M853.84,-360.41C855.04,-349.41 855.05,-335.03 853.88,-323.96"/>
</g>
<!-- 16&#45;&gt;16 -->
<g id="edge48" class="edge">
<title>16&#45;&gt;16</title>
<path fill="none" stroke="black" d="M873.44,-312.69C884.03,-313.15 893,-310.92 893,-306 893,-301.08 884.03,-298.85 873.44,-299.31"/>
</g>
<!-- 16&#45;&gt;16 -->
<g id="edge49" class="edge">
<title>16&#45;&gt;16</title>
<path fill="none" stroke="red" d="M869.63,-317.01C889.54,-322.54 911,-318.87 911,-306 911,-293.13 889.54,-289.46 869.63,-294.99"/>
</g>
<!-- 15&#45;&gt;20 -->
<g id="edge46" class="edge">
<title>15&#45;&gt;20</title>
<path fill="none" stroke="black" d="M630.34,-144.36C637.62,-126.04 650.45,-96 665,-72 673.2,-58.47 684.26,-44.36 692.83,-34.1"/>
</g>
<!-- 15&#45;&gt;19 -->
<g id="edge47" class="edge">
<title>15&#45;&gt;19</title>
<path fill="none" stroke="red" d="M643.16,-148.81C663.35,-135.96 694.95,-115.85 715.06,-103.05"/>
</g>
<!-- 9 -->
<g id="node21" class="node">
<title>9</title>
<ellipse fill="none" stroke="black" cx="243" cy="-306" rx="27" ry="18"/>
<text text-anchor="middle" x="243" y="-302.3" font-family="Times,serif" font-size="14.00">9</text>
</g>
<!-- 9&#45;&gt;14 -->
<g id="edge35" class="edge">
<title>9&#45;&gt;14</title>
<path fill="none" stroke="purple" d="M238.64,-288.05C235.81,-277.05 232.14,-262.76 229.32,-251.79"/>
</g>
<!-- 9&#45;&gt;18 -->
<g id="edge32" class="edge">
<title>9&#45;&gt;18</title>
<path fill="none" stroke="black" d="M253.58,-289.12C265.07,-276.53 283.05,-259.19 296.76,-247.56"/>
</g>
<!-- 9&#45;&gt;18 -->
<g id="edge33" class="edge">
<title>9&#45;&gt;18</title>
<path fill="none" stroke="red" d="M261.19,-292.49C274.91,-280.85 292.95,-263.45 304.46,-250.85"/>
</g>
<!-- 9&#45;&gt;17 -->
<g id="edge34" class="edge">
<title>9&#45;&gt;17</title>
<path fill="none" stroke="green" d="M226.07,-291.83C209.98,-279.32 185.92,-260.6 169.85,-248.11"/>
</g>
<!-- 10 -->
<g id="node22" class="node">
<title>10</title>
<ellipse fill="none" stroke="black" cx="956" cy="-378" rx="27" ry="18"/>
<text text-anchor="middle" x="956" y="-374.3" font-family="Times,serif" font-size="14.00">10</text>
</g>
<!-- 10&#45;&gt;10 -->
<g id="edge37" class="edge">
<title>10&#45;&gt;10</title>
<path fill="none" stroke="red" d="M975.9,-390.43C988.69,-393.68 1001,-389.53 1001,-378 1001,-366.47 988.69,-362.32 975.9,-365.57"/>
</g>
<!-- 13 -->
<g id="node23" class="node">
<title>13</title>
<ellipse fill="none" stroke="black" cx="956" cy="-306" rx="27" ry="18"/>
<text text-anchor="middle" x="956" y="-302.3" font-family="Times,serif" font-size="14.00">13</text>
</g>
<!-- 10&#45;&gt;13 -->
<g id="edge36" class="edge">
<title>10&#45;&gt;13</title>
<path fill="none" stroke="black" d="M944.56,-361.46C941.81,-349.86 941.81,-334.08 944.57,-322.49"/>
</g>
<!-- 10&#45;&gt;13 -->
<g id="edge38" class="edge">
<title>10&#45;&gt;13</title>
<path fill="none" stroke="green" d="M956,-359.7C956,-348.85 956,-334.92 956,-324.1"/>
</g>
<!-- 10&#45;&gt;13 -->
<g id="edge39" class="edge">
<title>10&#45;&gt;13</title>
<path fill="none" stroke="purple" d="M967.44,-361.46C970.19,-349.86 970.19,-334.08 967.43,-322.49"/>
</g>
<!-- 13&#45;&gt;13 -->
<g id="edge44" class="edge">
<title>13&#45;&gt;13</title>
<path fill="none" stroke="red" d="M975.9,-318.43C988.69,-321.68 1001,-317.53 1001,-306 1001,-294.47 988.69,-290.32 975.9,-293.57"/>
</g>
<!-- 11 -->
<g id="node24" class="node">
<title>11</title>
<ellipse fill="none" stroke="black" cx="679" cy="-234" rx="27" ry="18"/>
<text text-anchor="middle" x="679" y="-230.3" font-family="Times,serif" font-size="14.00">11</text>
</g>
<!-- 11&#45;&gt;12 -->
<g id="edge43" class="edge">
<title>11&#45;&gt;12</title>
<path fill="none" stroke="purple" d="M658.88,-221.91C635.24,-208.88 596.23,-187.38 572.45,-174.27"/>
</g>
<!-- 11&#45;&gt;20 -->
<g id="edge41" class="edge">
<title>11&#45;&gt;20</title>
<path fill="none" stroke="red" d="M680.87,-215.58C684.08,-186.03 690.99,-124.16 698,-72 699.61,-60.01 701.65,-46.53 703.27,-36.17"/>
</g>
<!-- 11&#45;&gt;19 -->
<g id="edge40" class="edge">
<title>11&#45;&gt;19</title>
<path fill="none" stroke="black" d="M685.42,-216.43C695.96,-189.22 716.83,-135.33 727.45,-107.9"/>
</g>
<!-- 11&#45;&gt;15 -->
<g id="edge42" class="edge">
<title>11&#45;&gt;15</title>
<path fill="none" stroke="green" d="M667.07,-217.81C657.84,-206.07 645.13,-189.89 635.91,-178.16"/>
</g>
</g>
</svg>
