<?xml version="1.0" encoding="UTF-8" standalone="no"?>
<!DOCTYPE svg PUBLIC "-//W3C//DTD SVG 1.1//EN"
 "http://www.w3.org/Graphics/SVG/1.1/DTD/svg11.dtd">
<!-- Generated by graphviz version 2.43.0 (0)
 -->
<!-- Title: G Pages: 1 -->
<svg width="262pt" height="260pt"
 viewBox="0.00 0.00 262.23 260.00" xmlns="http://www.w3.org/2000/svg" xmlns:xlink="http://www.w3.org/1999/xlink">
<g id="graph0" class="graph" transform="scale(1 1) rotate(0) translate(4 256)">
<title>G</title>
<polygon fill="white" stroke="transparent" points="-4,4 -4,-256 258.23,-256 258.23,4 -4,4"/>
<!-- 1 -->
<g id="node1" class="node">
<title>1</title>
<ellipse fill="none" stroke="black" cx="189" cy="-234" rx="27" ry="18"/>
<text text-anchor="middle" x="189" y="-230.3" font-family="Times,serif" font-size="14.00">1</text>
</g>
<!-- 1&#45;&gt;1 -->
<g id="edge1" class="edge">
<title>1&#45;&gt;1</title>
<path fill="none" stroke="black" d="M208.9,-246.43C221.69,-249.68 234,-245.53 234,-234 234,-222.47 221.69,-218.32 208.9,-221.57"/>
</g>
<!-- 6 -->
<g id="node2" class="node">
<title>6</title>
<ellipse fill="none" stroke="black" cx="27" cy="-162" rx="27" ry="18"/>
<text text-anchor="middle" x="27" y="-158.3" font-family="Times,serif" font-size="14.00">6</text>
</g>
<!-- 1&#45;&gt;6 -->
<g id="edge2" class="edge">
<title>1&#45;&gt;6</title>
<path fill="none" stroke="red" d="M166.81,-223.41C135.88,-210.05 80.11,-185.95 49.18,-172.58"/>
</g>
<!-- 5 -->
<g id="node3" class="node">
<title>5</title>
<ellipse fill="none" stroke="black" cx="189" cy="-162" rx="27" ry="18"/>
<text text-anchor="middle" x="189" y="-158.3" font-family="Times,serif" font-size="14.00">5</text>
</g>
<!-- 1&#45;&gt;5 -->
<g id="edge3" class="edge">
<title>1&#45;&gt;5</title>
<path fill="none" stroke="green" d="M189,-215.7C189,-204.85 189,-190.92 189,-180.1"/>
</g>
<!-- 22 -->
<g id="node4" class="node">
<title>22</title>
<ellipse fill="none" stroke="black" cx="108" cy="-18" rx="27" ry="18"/>
<text text-anchor="middle" x="108" y="-14.3" font-family="Times,serif" font-size="14.00">22</text>
</g>
<!-- 1&#45;&gt;22 -->
<g id="edge4" class="edge">
<title>1&#45;&gt;22</title>
<path fill="none" stroke="purple" d="M207.56,-220.86C220.18,-211.42 235.83,-197.08 243,-180 261.83,-135.13 256.17,-109.37 225,-72 201.72,-44.09 160.65,-30.23 133.89,-23.85"/>
</g>
<!-- 6&#45;&gt;6 -->
<g id="edge8" class="edge">
<title>6&#45;&gt;6</title>
<path fill="none" stroke="black" d="M46.9,-174.43C59.69,-177.68 72,-173.53 72,-162 72,-150.47 59.69,-146.32 46.9,-149.57"/>
</g>
<!-- 14 -->
<g id="node5" class="node">
<title>14</title>
<ellipse fill="none" stroke="black" cx="99" cy="-90" rx="27" ry="18"/>
<text text-anchor="middle" x="99" y="-86.3" font-family="Times,serif" font-size="14.00">14</text>
</g>
<!-- 6&#45;&gt;14 -->
<g id="edge9" class="edge">
<title>6&#45;&gt;14</title>
<path fill="none" stroke="green" d="M41.57,-146.83C53.98,-134.77 71.73,-117.51 84.2,-105.38"/>
</g>
<!-- 17 -->
<g id="node7" class="node">
<title>17</title>
<ellipse fill="none" stroke="black" cx="27" cy="-90" rx="27" ry="18"/>
<text text-anchor="middle" x="27" y="-86.3" font-family="Times,serif" font-size="14.00">17</text>
</g>
<!-- 6&#45;&gt;17 -->
<g id="edge10" class="edge">
<title>6&#45;&gt;17</title>
<path fill="none" stroke="purple" d="M27,-143.7C27,-132.85 27,-118.92 27,-108.1"/>
</g>
<!-- 5&#45;&gt;5 -->
<g id="edge5" class="edge">
<title>5&#45;&gt;5</title>
<path fill="none" stroke="black" d="M208.9,-174.43C221.69,-177.68 234,-173.53 234,-162 234,-150.47 221.69,-146.32 208.9,-149.57"/>
</g>
<!-- 5&#45;&gt;14 -->
<g id="edge6" class="edge">
<title>5&#45;&gt;14</title>
<path fill="none" stroke="red" d="M172.07,-147.83C155.98,-135.32 131.92,-116.6 115.85,-104.11"/>
</g>
<!-- 18 -->
<g id="node6" class="node">
<title>18</title>
<ellipse fill="none" stroke="black" cx="189" cy="-90" rx="27" ry="18"/>
<text text-anchor="middle" x="189" y="-86.3" font-family="Times,serif" font-size="14.00">18</text>
</g>
<!-- 5&#45;&gt;18 -->
<g id="edge7" class="edge">
<title>5&#45;&gt;18</title>
<path fill="none" stroke="purple" d="M189,-143.7C189,-132.85 189,-118.92 189,-108.1"/>
</g>
<!-- 14&#45;&gt;14 -->
<g id="edge15" class="edge">
<title>14&#45;&gt;14</title>
<path fill="none" stroke="black" d="M118.9,-102.43C131.69,-105.68 144,-101.53 144,-90 144,-78.47 131.69,-74.32 118.9,-77.57"/>
</g>
<!-- 18&#45;&gt;22 -->
<g id="edge18" class="edge">
<title>18&#45;&gt;22</title>
<path fill="none" stroke="green" d="M173,-75.17C158.8,-62.9 138.16,-45.06 123.97,-32.8"/>
</g>
<!-- 17&#45;&gt;22 -->
<g id="edge16" class="edge">
<title>17&#45;&gt;22</title>
<path fill="none" stroke="black" d="M38.9,-73.81C52.22,-60.94 73.42,-42.75 88.99,-30.91"/>
</g>
<!-- 17&#45;&gt;22 -->
<g id="edge17" class="edge">
<title>17&#45;&gt;22</title>
<path fill="none" stroke="red" d="M45.96,-77.13C61.46,-65.35 82.57,-47.24 95.92,-34.37"/>
</g>
<!-- 9 -->
<g id="node8" class="node">
<title>9</title>
<ellipse fill="none" stroke="black" cx="117" cy="-162" rx="27" ry="18"/>
<text text-anchor="middle" x="117" y="-158.3" font-family="Times,serif" font-size="14.00">9</text>
</g>
<!-- 9&#45;&gt;14 -->
<g id="edge14" class="edge">
<title>9&#45;&gt;14</title>
<path fill="none" stroke="purple" d="M112.64,-144.05C109.81,-133.05 106.14,-118.76 103.32,-107.79"/>
</g>
<!-- 9&#45;&gt;18 -->
<g id="edge11" class="edge">
<title>9&#45;&gt;18</title>
<path fill="none" stroke="black" d="M127.58,-145.12C139.07,-132.53 157.05,-115.19 170.76,-103.56"/>
</g>
<!-- 9&#45;&gt;18 -->
<g id="edge12" class="edge">
<title>9&#45;&gt;18</title>
<path fill="none" stroke="red" d="M135.19,-148.49C148.91,-136.85 166.95,-119.45 178.46,-106.85"/>
</g>
<!-- 9&#45;&gt;17 -->
<g id="edge13" class="edge">
<title>9&#45;&gt;17</title>
<path fill="none" stroke="green" d="M100.07,-147.83C83.98,-135.32 59.92,-116.6 43.85,-104.11"/>
</g>
</g>
</svg>
