<?xml version="1.0" encoding="UTF-8" standalone="no"?>
<!DOCTYPE svg PUBLIC "-//W3C//DTD SVG 1.1//EN"
 "http://www.w3.org/Graphics/SVG/1.1/DTD/svg11.dtd">
<!-- Generated by graphviz version 2.43.0 (0)
 -->
<!-- Title: G Pages: 1 -->
<svg width="126pt" height="260pt"
 viewBox="0.00 0.00 126.00 260.00" xmlns="http://www.w3.org/2000/svg" xmlns:xlink="http://www.w3.org/1999/xlink">
<g id="graph0" class="graph" transform="scale(1 1) rotate(0) translate(4 256)">
<title>G</title>
<polygon fill="white" stroke="transparent" points="-4,4 -4,-256 122,-256 122,4 -4,4"/>
<!-- 0 -->
<g id="node1" class="node">
<title>0</title>
<ellipse fill="none" stroke="black" cx="27" cy="-234" rx="27" ry="18"/>
<text text-anchor="middle" x="27" y="-230.3" font-family="Times,serif" font-size="14.00">0</text>
</g>
<!-- 0&#45;&gt;0 -->
<g id="edge1" class="edge">
<title>0&#45;&gt;0</title>
<path fill="none" stroke="black" d="M53.35,-238.48C63.53,-238.68 72,-237.19 72,-234 72,-230.81 63.53,-229.32 53.35,-229.52"/>
</g>
<!-- 0&#45;&gt;0 -->
<g id="edge2" class="edge">
<title>0&#45;&gt;0</title>
<path fill="none" stroke="red" d="M51.57,-241.84C70.6,-244.77 90,-242.16 90,-234 90,-225.84 70.6,-223.23 51.57,-226.16"/>
</g>
<!-- 0&#45;&gt;0 -->
<g id="edge3" class="edge">
<title>0&#45;&gt;0</title>
<path fill="none" stroke="green" d="M49.8,-243.8C76.67,-250.98 108,-247.71 108,-234 108,-220.29 76.67,-217.02 49.8,-224.2"/>
</g>
<!-- 23 -->
<g id="node2" class="node">
<title>23</title>
<ellipse fill="none" stroke="black" cx="27" cy="-18" rx="27" ry="18"/>
<text text-anchor="middle" x="27" y="-14.3" font-family="Times,serif" font-size="14.00">23</text>
</g>
<!-- 0&#45;&gt;23 -->
<g id="edge4" class="edge">
<title>0&#45;&gt;23</title>
<path fill="none" stroke="purple" d="M23.75,-215.89C21.95,-205.54 19.91,-192.06 19,-180 15.41,-132.13 15.41,-119.87 19,-72 19.91,-59.94 21.95,-46.46 23.75,-36.11"/>
</g>
<!-- 7 -->
<g id="node3" class="node">
<title>7</title>
<ellipse fill="none" stroke="black" cx="55" cy="-162" rx="27" ry="18"/>
<text text-anchor="middle" x="55" y="-158.3" font-family="Times,serif" font-size="14.00">7</text>
</g>
<!-- 0&#45;&gt;7 -->
<g id="edge5" class="edge">
<title>0&#45;&gt;7</title>
<path fill="none" stroke="cyan" d="M33.64,-216.41C38.1,-205.25 43.96,-190.6 48.41,-179.47"/>
</g>
<!-- 23&#45;&gt;23 -->
<g id="edge13" class="edge">
<title>23&#45;&gt;23</title>
<path fill="none" stroke="black" d="M53.35,-22.48C63.53,-22.68 72,-21.19 72,-18 72,-14.81 63.53,-13.32 53.35,-13.52"/>
</g>
<!-- 23&#45;&gt;23 -->
<g id="edge14" class="edge">
<title>23&#45;&gt;23</title>
<path fill="none" stroke="red" d="M51.57,-25.84C70.6,-28.77 90,-26.16 90,-18 90,-9.84 70.6,-7.23 51.57,-10.16"/>
</g>
<!-- 23&#45;&gt;23 -->
<g id="edge15" class="edge">
<title>23&#45;&gt;23</title>
<path fill="none" stroke="green" d="M49.8,-27.8C76.67,-34.98 108,-31.71 108,-18 108,-4.29 76.67,-1.02 49.8,-8.2"/>
</g>
<!-- 7&#45;&gt;7 -->
<g id="edge6" class="edge">
<title>7&#45;&gt;7</title>
<path fill="none" stroke="black" d="M80.44,-168.69C91.03,-169.15 100,-166.92 100,-162 100,-157.08 91.03,-154.85 80.44,-155.31"/>
</g>
<!-- 7&#45;&gt;7 -->
<g id="edge7" class="edge">
<title>7&#45;&gt;7</title>
<path fill="none" stroke="red" d="M76.63,-173.01C96.54,-178.54 118,-174.87 118,-162 118,-149.13 96.54,-145.46 76.63,-150.99"/>
</g>
<!-- 16 -->
<g id="node4" class="node">
<title>16</title>
<ellipse fill="none" stroke="black" cx="55" cy="-90" rx="27" ry="18"/>
<text text-anchor="middle" x="55" y="-86.3" font-family="Times,serif" font-size="14.00">16</text>
</g>
<!-- 7&#45;&gt;16 -->
<g id="edge8" class="edge">
<title>7&#45;&gt;16</title>
<path fill="none" stroke="green" d="M49.16,-144.41C47.96,-133.41 47.95,-119.03 49.12,-107.96"/>
</g>
<!-- 7&#45;&gt;16 -->
<g id="edge9" class="edge">
<title>7&#45;&gt;16</title>
<path fill="none" stroke="purple" d="M60.84,-144.41C62.04,-133.41 62.05,-119.03 60.88,-107.96"/>
</g>
<!-- 16&#45;&gt;23 -->
<g id="edge12" class="edge">
<title>16&#45;&gt;23</title>
<path fill="none" stroke="cyan" d="M48.36,-72.41C43.9,-61.25 38.04,-46.6 33.59,-35.47"/>
</g>
<!-- 16&#45;&gt;16 -->
<g id="edge10" class="edge">
<title>16&#45;&gt;16</title>
<path fill="none" stroke="black" d="M80.44,-96.69C91.03,-97.15 100,-94.92 100,-90 100,-85.08 91.03,-82.85 80.44,-83.31"/>
</g>
<!-- 16&#45;&gt;16 -->
<g id="edge11" class="edge">
<title>16&#45;&gt;16</title>
<path fill="none" stroke="red" d="M76.63,-101.01C96.54,-106.54 118,-102.87 118,-90 118,-77.13 96.54,-73.46 76.63,-78.99"/>
</g>
</g>
</svg>
