<?xml version="1.0" encoding="UTF-8" standalone="no"?>
<!DOCTYPE svg PUBLIC "-//W3C//DTD SVG 1.1//EN"
 "http://www.w3.org/Graphics/SVG/1.1/DTD/svg11.dtd">
<!-- Generated by graphviz version 2.43.0 (0)
 -->
<!-- Title: G Pages: 1 -->
<svg width="206pt" height="116pt"
 viewBox="0.00 0.00 206.00 116.00" xmlns="http://www.w3.org/2000/svg" xmlns:xlink="http://www.w3.org/1999/xlink">
<g id="graph0" class="graph" transform="scale(1 1) rotate(0) translate(4 112)">
<title>G</title>
<polygon fill="white" stroke="transparent" points="-4,4 -4,-112 202,-112 202,4 -4,4"/>
<!-- 2 -->
<g id="node1" class="node">
<title>2</title>
<ellipse fill="none" stroke="black" cx="27" cy="-90" rx="27" ry="18"/>
<text text-anchor="middle" x="27" y="-86.3" font-family="Times,serif" font-size="14.00">2</text>
</g>
<!-- 2&#45;&gt;2 -->
<g id="edge1" class="edge">
<title>2&#45;&gt;2</title>
<path fill="none" stroke="black" d="M53.35,-94.48C63.53,-94.68 72,-93.19 72,-90 72,-86.81 63.53,-85.32 53.35,-85.52"/>
</g>
<!-- 2&#45;&gt;2 -->
<g id="edge2" class="edge">
<title>2&#45;&gt;2</title>
<path fill="none" stroke="red" d="M51.57,-97.84C70.6,-100.77 90,-98.16 90,-90 90,-81.84 70.6,-79.23 51.57,-82.16"/>
</g>
<!-- 2&#45;&gt;2 -->
<g id="edge3" class="edge">
<title>2&#45;&gt;2</title>
<path fill="none" stroke="green" d="M49.8,-99.8C76.67,-106.98 108,-103.71 108,-90 108,-76.29 76.67,-73.02 49.8,-80.2"/>
</g>
<!-- 21 -->
<g id="node2" class="node">
<title>21</title>
<ellipse fill="none" stroke="black" cx="27" cy="-18" rx="27" ry="18"/>
<text text-anchor="middle" x="27" y="-14.3" font-family="Times,serif" font-size="14.00">21</text>
</g>
<!-- 2&#45;&gt;21 -->
<g id="edge4" class="edge">
<title>2&#45;&gt;21</title>
<path fill="none" stroke="purple" d="M27,-71.7C27,-60.85 27,-46.92 27,-36.1"/>
</g>
<!-- 13 -->
<g id="node3" class="node">
<title>13</title>
<ellipse fill="none" stroke="black" cx="153" cy="-18" rx="27" ry="18"/>
<text text-anchor="middle" x="153" y="-14.3" font-family="Times,serif" font-size="14.00">13</text>
</g>
<!-- 2&#45;&gt;13 -->
<g id="edge5" class="edge">
<title>2&#45;&gt;13</title>
<path fill="none" stroke="cyan" d="M47.24,-77.75C70.76,-64.69 109.31,-43.27 132.81,-30.22"/>
</g>
<!-- 21&#45;&gt;21 -->
<g id="edge12" class="edge">
<title>21&#45;&gt;21</title>
<path fill="none" stroke="black" d="M53.35,-22.48C63.53,-22.68 72,-21.19 72,-18 72,-14.81 63.53,-13.32 53.35,-13.52"/>
</g>
<!-- 21&#45;&gt;21 -->
<g id="edge13" class="edge">
<title>21&#45;&gt;21</title>
<path fill="none" stroke="red" d="M51.57,-25.84C70.6,-28.77 90,-26.16 90,-18 90,-9.84 70.6,-7.23 51.57,-10.16"/>
</g>
<!-- 21&#45;&gt;21 -->
<g id="edge14" class="edge">
<title>21&#45;&gt;21</title>
<path fill="none" stroke="green" d="M49.8,-27.8C76.67,-34.98 108,-31.71 108,-18 108,-4.29 76.67,-1.02 49.8,-8.2"/>
</g>
<!-- 13&#45;&gt;13 -->
<g id="edge11" class="edge">
<title>13&#45;&gt;13</title>
<path fill="none" stroke="red" d="M172.9,-30.43C185.69,-33.68 198,-29.53 198,-18 198,-6.47 185.69,-2.32 172.9,-5.57"/>
</g>
<!-- 10 -->
<g id="node4" class="node">
<title>10</title>
<ellipse fill="none" stroke="black" cx="153" cy="-90" rx="27" ry="18"/>
<text text-anchor="middle" x="153" y="-86.3" font-family="Times,serif" font-size="14.00">10</text>
</g>
<!-- 10&#45;&gt;21 -->
<g id="edge10" class="edge">
<title>10&#45;&gt;21</title>
<path fill="none" stroke="cyan" d="M132.76,-77.75C109.24,-64.69 70.69,-43.27 47.19,-30.22"/>
</g>
<!-- 10&#45;&gt;13 -->
<g id="edge6" class="edge">
<title>10&#45;&gt;13</title>
<path fill="none" stroke="black" d="M141.56,-73.46C138.81,-61.86 138.81,-46.08 141.57,-34.49"/>
</g>
<!-- 10&#45;&gt;13 -->
<g id="edge8" class="edge">
<title>10&#45;&gt;13</title>
<path fill="none" stroke="green" d="M153,-71.7C153,-60.85 153,-46.92 153,-36.1"/>
</g>
<!-- 10&#45;&gt;13 -->
<g id="edge9" class="edge">
<title>10&#45;&gt;13</title>
<path fill="none" stroke="purple" d="M164.44,-73.46C167.19,-61.86 167.19,-46.08 164.43,-34.49"/>
</g>
<!-- 10&#45;&gt;10 -->
<g id="edge7" class="edge">
<title>10&#45;&gt;10</title>
<path fill="none" stroke="red" d="M172.9,-102.43C185.69,-105.68 198,-101.53 198,-90 198,-78.47 185.69,-74.32 172.9,-77.57"/>
</g>
</g>
</svg>
