<?xml version="1.0" encoding="UTF-8" standalone="no"?>
<!DOCTYPE svg PUBLIC "-//W3C//DTD SVG 1.1//EN"
 "http://www.w3.org/Graphics/SVG/1.1/DTD/svg11.dtd">
<!-- Generated by graphviz version 2.43.0 (0)
 -->
<!-- Title: G Pages: 1 -->
<svg width="942pt" height="404pt"
 viewBox="0.00 0.00 942.00 404.00" xmlns="http://www.w3.org/2000/svg" xmlns:xlink="http://www.w3.org/1999/xlink">
<g id="graph0" class="graph" transform="scale(1 1) rotate(0) translate(4 400)">
<title>G</title>
<polygon fill="white" stroke="transparent" points="-4,4 -4,-400 938,-400 938,4 -4,4"/>
<!-- 0 -->
<g id="node1" class="node">
<title>0</title>
<ellipse fill="none" stroke="black" cx="28" cy="-378" rx="27" ry="18"/>
<text text-anchor="middle" x="28" y="-374.3" font-family="Times,serif" font-size="14.00">0</text>
</g>
<!-- 0&#45;&gt;0 -->
<g id="edge1" class="edge">
<title>0&#45;&gt;0</title>
<path fill="none" stroke="black" d="M54.35,-382.48C64.53,-382.68 73,-381.19 73,-378 73,-374.81 64.53,-373.32 54.35,-373.52"/>
</g>
<!-- 0&#45;&gt;0 -->
<g id="edge2" class="edge">
<title>0&#45;&gt;0</title>
<path fill="none" stroke="red" d="M52.57,-385.84C71.6,-388.77 91,-386.16 91,-378 91,-369.84 71.6,-367.23 52.57,-370.16"/>
</g>
<!-- 0&#45;&gt;0 -->
<g id="edge3" class="edge">
<title>0&#45;&gt;0</title>
<path fill="none" stroke="green" d="M50.8,-387.8C77.67,-394.98 109,-391.71 109,-378 109,-364.29 77.67,-361.02 50.8,-368.2"/>
</g>
<!-- 23 -->
<g id="node2" class="node">
<title>23</title>
<ellipse fill="none" stroke="black" cx="27" cy="-162" rx="27" ry="18"/>
<text text-anchor="middle" x="27" y="-158.3" font-family="Times,serif" font-size="14.00">23</text>
</g>
<!-- 0&#45;&gt;23 -->
<g id="edge4" class="edge">
<title>0&#45;&gt;23</title>
<path fill="none" stroke="purple" d="M24.35,-359.91C22.32,-349.57 20.02,-336.09 19,-324 14.97,-276.17 15.41,-263.87 19,-216 19.91,-203.94 21.95,-190.46 23.75,-180.11"/>
</g>
<!-- 7 -->
<g id="node3" class="node">
<title>7</title>
<ellipse fill="none" stroke="black" cx="55" cy="-306" rx="27" ry="18"/>
<text text-anchor="middle" x="55" y="-302.3" font-family="Times,serif" font-size="14.00">7</text>
</g>
<!-- 0&#45;&gt;7 -->
<g id="edge5" class="edge">
<title>0&#45;&gt;7</title>
<path fill="none" stroke="cyan" d="M34.4,-360.41C38.64,-349.41 44.19,-335.03 48.46,-323.96"/>
</g>
<!-- 23&#45;&gt;23 -->
<g id="edge69" class="edge">
<title>23&#45;&gt;23</title>
<path fill="none" stroke="black" d="M53.35,-166.48C63.53,-166.68 72,-165.19 72,-162 72,-158.81 63.53,-157.32 53.35,-157.52"/>
</g>
<!-- 23&#45;&gt;23 -->
<g id="edge70" class="edge">
<title>23&#45;&gt;23</title>
<path fill="none" stroke="red" d="M51.57,-169.84C70.6,-172.77 90,-170.16 90,-162 90,-153.84 70.6,-151.23 51.57,-154.16"/>
</g>
<!-- 23&#45;&gt;23 -->
<g id="edge71" class="edge">
<title>23&#45;&gt;23</title>
<path fill="none" stroke="green" d="M49.8,-171.8C76.67,-178.98 108,-175.71 108,-162 108,-148.29 76.67,-145.02 49.8,-152.2"/>
</g>
<!-- 7&#45;&gt;7 -->
<g id="edge31" class="edge">
<title>7&#45;&gt;7</title>
<path fill="none" stroke="black" d="M80.44,-312.69C91.03,-313.15 100,-310.92 100,-306 100,-301.08 91.03,-298.85 80.44,-299.31"/>
</g>
<!-- 7&#45;&gt;7 -->
<g id="edge32" class="edge">
<title>7&#45;&gt;7</title>
<path fill="none" stroke="red" d="M76.63,-317.01C96.54,-322.54 118,-318.87 118,-306 118,-293.13 96.54,-289.46 76.63,-294.99"/>
</g>
<!-- 16 -->
<g id="node20" class="node">
<title>16</title>
<ellipse fill="none" stroke="black" cx="55" cy="-234" rx="27" ry="18"/>
<text text-anchor="middle" x="55" y="-230.3" font-family="Times,serif" font-size="14.00">16</text>
</g>
<!-- 7&#45;&gt;16 -->
<g id="edge33" class="edge">
<title>7&#45;&gt;16</title>
<path fill="none" stroke="green" d="M49.16,-288.41C47.96,-277.41 47.95,-263.03 49.12,-251.96"/>
</g>
<!-- 7&#45;&gt;16 -->
<g id="edge34" class="edge">
<title>7&#45;&gt;16</title>
<path fill="none" stroke="purple" d="M60.84,-288.41C62.04,-277.41 62.05,-263.03 60.88,-251.96"/>
</g>
<!-- 1 -->
<g id="node4" class="node">
<title>1</title>
<ellipse fill="none" stroke="black" cx="325" cy="-378" rx="27" ry="18"/>
<text text-anchor="middle" x="325" y="-374.3" font-family="Times,serif" font-size="14.00">1</text>
</g>
<!-- 1&#45;&gt;1 -->
<g id="edge6" class="edge">
<title>1&#45;&gt;1</title>
<path fill="none" stroke="black" d="M344.9,-390.43C357.69,-393.68 370,-389.53 370,-378 370,-366.47 357.69,-362.32 344.9,-365.57"/>
</g>
<!-- 6 -->
<g id="node5" class="node">
<title>6</title>
<ellipse fill="none" stroke="black" cx="325" cy="-306" rx="27" ry="18"/>
<text text-anchor="middle" x="325" y="-302.3" font-family="Times,serif" font-size="14.00">6</text>
</g>
<!-- 1&#45;&gt;6 -->
<g id="edge7" class="edge">
<title>1&#45;&gt;6</title>
<path fill="none" stroke="red" d="M319.16,-360.41C317.96,-349.41 317.95,-335.03 319.12,-323.96"/>
</g>
<!-- 1&#45;&gt;6 -->
<g id="edge10" class="edge">
<title>1&#45;&gt;6</title>
<path fill="none" stroke="cyan" d="M330.84,-360.41C332.04,-349.41 332.05,-335.03 330.88,-323.96"/>
</g>
<!-- 5 -->
<g id="node6" class="node">
<title>5</title>
<ellipse fill="none" stroke="black" cx="163" cy="-306" rx="27" ry="18"/>
<text text-anchor="middle" x="163" y="-302.3" font-family="Times,serif" font-size="14.00">5</text>
</g>
<!-- 1&#45;&gt;5 -->
<g id="edge8" class="edge">
<title>1&#45;&gt;5</title>
<path fill="none" stroke="green" d="M302.81,-367.41C271.88,-354.05 216.11,-329.95 185.18,-316.58"/>
</g>
<!-- 22 -->
<g id="node7" class="node">
<title>22</title>
<ellipse fill="none" stroke="black" cx="343" cy="-162" rx="27" ry="18"/>
<text text-anchor="middle" x="343" y="-158.3" font-family="Times,serif" font-size="14.00">22</text>
</g>
<!-- 1&#45;&gt;22 -->
<g id="edge9" class="edge">
<title>1&#45;&gt;22</title>
<path fill="none" stroke="purple" d="M343.56,-364.86C356.18,-355.42 371.83,-341.08 379,-324 397.58,-279.74 393.11,-261.88 379,-216 374.62,-201.75 364.96,-187.9 356.75,-177.93"/>
</g>
<!-- 6&#45;&gt;6 -->
<g id="edge28" class="edge">
<title>6&#45;&gt;6</title>
<path fill="none" stroke="black" d="M344.9,-318.43C357.69,-321.68 370,-317.53 370,-306 370,-294.47 357.69,-290.32 344.9,-293.57"/>
</g>
<!-- 14 -->
<g id="node17" class="node">
<title>14</title>
<ellipse fill="none" stroke="black" cx="253" cy="-234" rx="27" ry="18"/>
<text text-anchor="middle" x="253" y="-230.3" font-family="Times,serif" font-size="14.00">14</text>
</g>
<!-- 6&#45;&gt;14 -->
<g id="edge29" class="edge">
<title>6&#45;&gt;14</title>
<path fill="none" stroke="green" d="M310.43,-290.83C298.02,-278.77 280.27,-261.51 267.8,-249.38"/>
</g>
<!-- 17 -->
<g id="node19" class="node">
<title>17</title>
<ellipse fill="none" stroke="black" cx="343" cy="-234" rx="27" ry="18"/>
<text text-anchor="middle" x="343" y="-230.3" font-family="Times,serif" font-size="14.00">17</text>
</g>
<!-- 6&#45;&gt;17 -->
<g id="edge30" class="edge">
<title>6&#45;&gt;17</title>
<path fill="none" stroke="purple" d="M329.36,-288.05C332.19,-277.05 335.86,-262.76 338.68,-251.79"/>
</g>
<!-- 5&#45;&gt;5 -->
<g id="edge24" class="edge">
<title>5&#45;&gt;5</title>
<path fill="none" stroke="black" d="M182.9,-318.43C195.69,-321.68 208,-317.53 208,-306 208,-294.47 195.69,-290.32 182.9,-293.57"/>
</g>
<!-- 5&#45;&gt;14 -->
<g id="edge25" class="edge">
<title>5&#45;&gt;14</title>
<path fill="none" stroke="red" d="M179.93,-291.83C196.02,-279.32 220.08,-260.6 236.15,-248.11"/>
</g>
<!-- 18 -->
<g id="node18" class="node">
<title>18</title>
<ellipse fill="none" stroke="black" cx="181" cy="-234" rx="27" ry="18"/>
<text text-anchor="middle" x="181" y="-230.3" font-family="Times,serif" font-size="14.00">18</text>
</g>
<!-- 5&#45;&gt;18 -->
<g id="edge26" class="edge">
<title>5&#45;&gt;18</title>
<path fill="none" stroke="purple" d="M161.53,-287.7C163.25,-276.52 167.01,-262.08 171.06,-251.14"/>
</g>
<!-- 5&#45;&gt;18 -->
<g id="edge27" class="edge">
<title>5&#45;&gt;18</title>
<path fill="none" stroke="cyan" d="M172.85,-289.12C176.93,-278.14 180.73,-263.56 182.47,-252.29"/>
</g>
<!-- 2 -->
<g id="node8" class="node">
<title>2</title>
<ellipse fill="none" stroke="black" cx="453" cy="-378" rx="27" ry="18"/>
<text text-anchor="middle" x="453" y="-374.3" font-family="Times,serif" font-size="14.00">2</text>
</g>
<!-- 2&#45;&gt;2 -->
<g id="edge11" class="edge">
<title>2&#45;&gt;2</title>
<path fill="none" stroke="black" d="M479.35,-382.48C489.53,-382.68 498,-381.19 498,-378 498,-374.81 489.53,-373.32 479.35,-373.52"/>
</g>
<!-- 2&#45;&gt;2 -->
<g id="edge12" class="edge">
<title>2&#45;&gt;2</title>
<path fill="none" stroke="red" d="M477.57,-385.84C496.6,-388.77 516,-386.16 516,-378 516,-369.84 496.6,-367.23 477.57,-370.16"/>
</g>
<!-- 2&#45;&gt;2 -->
<g id="edge13" class="edge">
<title>2&#45;&gt;2</title>
<path fill="none" stroke="green" d="M475.8,-387.8C502.67,-394.98 534,-391.71 534,-378 534,-364.29 502.67,-361.02 475.8,-368.2"/>
</g>
<!-- 21 -->
<g id="node9" class="node">
<title>21</title>
<ellipse fill="none" stroke="black" cx="453" cy="-306" rx="27" ry="18"/>
<text text-anchor="middle" x="453" y="-302.3" font-family="Times,serif" font-size="14.00">21</text>
</g>
<!-- 2&#45;&gt;21 -->
<g id="edge14" class="edge">
<title>2&#45;&gt;21</title>
<path fill="none" stroke="purple" d="M453,-359.7C453,-348.85 453,-334.92 453,-324.1"/>
</g>
<!-- 13 -->
<g id="node10" class="node">
<title>13</title>
<ellipse fill="none" stroke="black" cx="579" cy="-306" rx="27" ry="18"/>
<text text-anchor="middle" x="579" y="-302.3" font-family="Times,serif" font-size="14.00">13</text>
</g>
<!-- 2&#45;&gt;13 -->
<g id="edge15" class="edge">
<title>2&#45;&gt;13</title>
<path fill="none" stroke="cyan" d="M473.24,-365.75C496.76,-352.69 535.31,-331.27 558.81,-318.22"/>
</g>
<!-- 21&#45;&gt;21 -->
<g id="edge66" class="edge">
<title>21&#45;&gt;21</title>
<path fill="none" stroke="black" d="M479.35,-310.48C489.53,-310.68 498,-309.19 498,-306 498,-302.81 489.53,-301.32 479.35,-301.52"/>
</g>
<!-- 21&#45;&gt;21 -->
<g id="edge67" class="edge">
<title>21&#45;&gt;21</title>
<path fill="none" stroke="red" d="M477.57,-313.84C496.6,-316.77 516,-314.16 516,-306 516,-297.84 496.6,-295.23 477.57,-298.16"/>
</g>
<!-- 21&#45;&gt;21 -->
<g id="edge68" class="edge">
<title>21&#45;&gt;21</title>
<path fill="none" stroke="green" d="M475.8,-315.8C502.67,-322.98 534,-319.71 534,-306 534,-292.29 502.67,-289.02 475.8,-296.2"/>
</g>
<!-- 13&#45;&gt;13 -->
<g id="edge54" class="edge">
<title>13&#45;&gt;13</title>
<path fill="none" stroke="red" d="M598.9,-318.43C611.69,-321.68 624,-317.53 624,-306 624,-294.47 611.69,-290.32 598.9,-293.57"/>
</g>
<!-- 3 -->
<g id="node11" class="node">
<title>3</title>
<ellipse fill="none" stroke="black" cx="707" cy="-378" rx="27" ry="18"/>
<text text-anchor="middle" x="707" y="-374.3" font-family="Times,serif" font-size="14.00">3</text>
</g>
<!-- 4 -->
<g id="node12" class="node">
<title>4</title>
<ellipse fill="none" stroke="black" cx="707" cy="-306" rx="27" ry="18"/>
<text text-anchor="middle" x="707" y="-302.3" font-family="Times,serif" font-size="14.00">4</text>
</g>
<!-- 3&#45;&gt;4 -->
<g id="edge16" class="edge">
<title>3&#45;&gt;4</title>
<path fill="none" stroke="black" d="M701.16,-360.41C699.96,-349.41 699.95,-335.03 701.12,-323.96"/>
</g>
<!-- 3&#45;&gt;4 -->
<g id="edge18" class="edge">
<title>3&#45;&gt;4</title>
<path fill="none" stroke="green" d="M712.84,-360.41C714.04,-349.41 714.05,-335.03 712.88,-323.96"/>
</g>
<!-- 12 -->
<g id="node13" class="node">
<title>12</title>
<ellipse fill="none" stroke="black" cx="771" cy="-162" rx="27" ry="18"/>
<text text-anchor="middle" x="771" y="-158.3" font-family="Times,serif" font-size="14.00">12</text>
</g>
<!-- 3&#45;&gt;12 -->
<g id="edge17" class="edge">
<title>3&#45;&gt;12</title>
<path fill="none" stroke="red" d="M713.12,-360.4C719.66,-350.45 728.66,-337.2 734,-324 754.22,-274.03 759.85,-209.55 765.09,-179.62"/>
</g>
<!-- 3&#45;&gt;12 -->
<g id="edge20" class="edge">
<title>3&#45;&gt;12</title>
<path fill="none" stroke="cyan" d="M725.19,-364.39C735.06,-354.18 745.91,-339.05 752,-324 772.11,-274.29 777.79,-210.23 775.76,-180.1"/>
</g>
<!-- 20 -->
<g id="node14" class="node">
<title>20</title>
<ellipse fill="none" stroke="black" cx="871" cy="-18" rx="27" ry="18"/>
<text text-anchor="middle" x="871" y="-14.3" font-family="Times,serif" font-size="14.00">20</text>
</g>
<!-- 3&#45;&gt;20 -->
<g id="edge19" class="edge">
<title>3&#45;&gt;20</title>
<path fill="none" stroke="purple" d="M694.25,-361.7C686.44,-351.59 676.85,-337.71 671,-324 655.12,-286.8 652,-275.45 652,-235 652,-235 652,-235 652,-161 652,-69.92 787.01,-34.32 845.02,-23.23"/>
</g>
<!-- 8 -->
<g id="node15" class="node">
<title>8</title>
<ellipse fill="none" stroke="black" cx="835" cy="-234" rx="27" ry="18"/>
<text text-anchor="middle" x="835" y="-230.3" font-family="Times,serif" font-size="14.00">8</text>
</g>
<!-- 4&#45;&gt;8 -->
<g id="edge21" class="edge">
<title>4&#45;&gt;8</title>
<path fill="none" stroke="red" d="M727.28,-293.91C751.25,-280.8 790.89,-259.12 814.81,-246.04"/>
</g>
<!-- 19 -->
<g id="node16" class="node">
<title>19</title>
<ellipse fill="none" stroke="black" cx="816" cy="-90" rx="27" ry="18"/>
<text text-anchor="middle" x="816" y="-86.3" font-family="Times,serif" font-size="14.00">19</text>
</g>
<!-- 4&#45;&gt;19 -->
<g id="edge22" class="edge">
<title>4&#45;&gt;19</title>
<path fill="none" stroke="purple" d="M700.56,-288.38C695.28,-257.32 696.07,-189.51 726,-144 741.15,-120.97 770.13,-105.7 791.37,-97.69"/>
</g>
<!-- 4&#45;&gt;19 -->
<g id="edge23" class="edge">
<title>4&#45;&gt;19</title>
<path fill="none" stroke="cyan" d="M711,-287.89C713.29,-256.61 714.22,-189.27 744,-144 756.65,-124.76 778.96,-110.94 795.59,-102.24"/>
</g>
<!-- 8&#45;&gt;12 -->
<g id="edge35" class="edge">
<title>8&#45;&gt;12</title>
<path fill="none" stroke="black" d="M817.55,-219.83C805.33,-208.27 789.79,-191.41 779.9,-179.06"/>
</g>
<!-- 8&#45;&gt;12 -->
<g id="edge36" class="edge">
<title>8&#45;&gt;12</title>
<path fill="none" stroke="green" d="M825.96,-216.76C816.11,-204.49 800.76,-187.83 788.62,-176.33"/>
</g>
<!-- 15 -->
<g id="node21" class="node">
<title>15</title>
<ellipse fill="none" stroke="black" cx="843" cy="-162" rx="27" ry="18"/>
<text text-anchor="middle" x="843" y="-158.3" font-family="Times,serif" font-size="14.00">15</text>
</g>
<!-- 8&#45;&gt;15 -->
<g id="edge37" class="edge">
<title>8&#45;&gt;15</title>
<path fill="none" stroke="purple" d="M831.06,-216.05C831.15,-204.89 832.83,-190.34 835.33,-179.31"/>
</g>
<!-- 8&#45;&gt;15 -->
<g id="edge38" class="edge">
<title>8&#45;&gt;15</title>
<path fill="none" stroke="cyan" d="M842.74,-216.41C845.19,-205.41 846.85,-191.03 846.94,-179.96"/>
</g>
<!-- 19&#45;&gt;20 -->
<g id="edge65" class="edge">
<title>19&#45;&gt;20</title>
<path fill="none" stroke="green" d="M827.93,-73.81C837.16,-62.07 849.87,-45.89 859.09,-34.16"/>
</g>
<!-- 14&#45;&gt;14 -->
<g id="edge55" class="edge">
<title>14&#45;&gt;14</title>
<path fill="none" stroke="black" d="M272.9,-246.43C285.69,-249.68 298,-245.53 298,-234 298,-222.47 285.69,-218.32 272.9,-221.57"/>
</g>
<!-- 18&#45;&gt;22 -->
<g id="edge64" class="edge">
<title>18&#45;&gt;22</title>
<path fill="none" stroke="green" d="M202.25,-222.78C207.08,-220.51 212.2,-218.14 217,-216 252.98,-199.95 295.27,-182.43 320.57,-172.09"/>
</g>
<!-- 17&#45;&gt;22 -->
<g id="edge61" class="edge">
<title>17&#45;&gt;22</title>
<path fill="none" stroke="black" d="M331.56,-217.46C328.81,-205.86 328.81,-190.08 331.57,-178.49"/>
</g>
<!-- 17&#45;&gt;22 -->
<g id="edge62" class="edge">
<title>17&#45;&gt;22</title>
<path fill="none" stroke="red" d="M343,-215.7C343,-204.85 343,-190.92 343,-180.1"/>
</g>
<!-- 17&#45;&gt;22 -->
<g id="edge63" class="edge">
<title>17&#45;&gt;22</title>
<path fill="none" stroke="cyan" d="M354.44,-217.46C357.19,-205.86 357.19,-190.08 354.43,-178.49"/>
</g>
<!-- 16&#45;&gt;23 -->
<g id="edge60" class="edge">
<title>16&#45;&gt;23</title>
<path fill="none" stroke="cyan" d="M48.36,-216.41C43.9,-205.25 38.04,-190.6 33.59,-179.47"/>
</g>
<!-- 16&#45;&gt;16 -->
<g id="edge58" class="edge">
<title>16&#45;&gt;16</title>
<path fill="none" stroke="black" d="M80.44,-240.69C91.03,-241.15 100,-238.92 100,-234 100,-229.08 91.03,-226.85 80.44,-227.31"/>
</g>
<!-- 16&#45;&gt;16 -->
<g id="edge59" class="edge">
<title>16&#45;&gt;16</title>
<path fill="none" stroke="red" d="M76.63,-245.01C96.54,-250.54 118,-246.87 118,-234 118,-221.13 96.54,-217.46 76.63,-222.99"/>
</g>
<!-- 15&#45;&gt;20 -->
<g id="edge56" class="edge">
<title>15&#45;&gt;20</title>
<path fill="none" stroke="black" d="M846.38,-143.87C851.76,-116.58 862.22,-63.52 867.61,-36.19"/>
</g>
<!-- 15&#45;&gt;19 -->
<g id="edge57" class="edge">
<title>15&#45;&gt;19</title>
<path fill="none" stroke="red" d="M836.6,-144.41C832.36,-133.41 826.81,-119.03 822.54,-107.96"/>
</g>
<!-- 9 -->
<g id="node22" class="node">
<title>9</title>
<ellipse fill="none" stroke="black" cx="253" cy="-306" rx="27" ry="18"/>
<text text-anchor="middle" x="253" y="-302.3" font-family="Times,serif" font-size="14.00">9</text>
</g>
<!-- 9&#45;&gt;14 -->
<g id="edge42" class="edge">
<title>9&#45;&gt;14</title>
<path fill="none" stroke="purple" d="M247.16,-288.41C245.96,-277.41 245.95,-263.03 247.12,-251.96"/>
</g>
<!-- 9&#45;&gt;14 -->
<g id="edge43" class="edge">
<title>9&#45;&gt;14</title>
<path fill="none" stroke="cyan" d="M258.84,-288.41C260.04,-277.41 260.05,-263.03 258.88,-251.96"/>
</g>
<!-- 9&#45;&gt;18 -->
<g id="edge39" class="edge">
<title>9&#45;&gt;18</title>
<path fill="none" stroke="black" d="M234.81,-292.49C221.09,-280.85 203.05,-263.45 191.54,-250.85"/>
</g>
<!-- 9&#45;&gt;18 -->
<g id="edge40" class="edge">
<title>9&#45;&gt;18</title>
<path fill="none" stroke="red" d="M242.42,-289.12C230.93,-276.53 212.95,-259.19 199.24,-247.56"/>
</g>
<!-- 9&#45;&gt;17 -->
<g id="edge41" class="edge">
<title>9&#45;&gt;17</title>
<path fill="none" stroke="green" d="M269.93,-291.83C286.02,-279.32 310.08,-260.6 326.15,-248.11"/>
</g>
<!-- 10 -->
<g id="node23" class="node">
<title>10</title>
<ellipse fill="none" stroke="black" cx="579" cy="-378" rx="27" ry="18"/>
<text text-anchor="middle" x="579" y="-374.3" font-family="Times,serif" font-size="14.00">10</text>
</g>
<!-- 10&#45;&gt;21 -->
<g id="edge48" class="edge">
<title>10&#45;&gt;21</title>
<path fill="none" stroke="cyan" d="M558.76,-365.75C535.24,-352.69 496.69,-331.27 473.19,-318.22"/>
</g>
<!-- 10&#45;&gt;13 -->
<g id="edge44" class="edge">
<title>10&#45;&gt;13</title>
<path fill="none" stroke="black" d="M567.56,-361.46C564.81,-349.86 564.81,-334.08 567.57,-322.49"/>
</g>
<!-- 10&#45;&gt;13 -->
<g id="edge46" class="edge">
<title>10&#45;&gt;13</title>
<path fill="none" stroke="green" d="M579,-359.7C579,-348.85 579,-334.92 579,-324.1"/>
</g>
<!-- 10&#45;&gt;13 -->
<g id="edge47" class="edge">
<title>10&#45;&gt;13</title>
<path fill="none" stroke="purple" d="M590.44,-361.46C593.19,-349.86 593.19,-334.08 590.43,-322.49"/>
</g>
<!-- 10&#45;&gt;10 -->
<g id="edge45" class="edge">
<title>10&#45;&gt;10</title>
<path fill="none" stroke="red" d="M598.9,-390.43C611.69,-393.68 624,-389.53 624,-378 624,-366.47 611.69,-362.32 598.9,-365.57"/>
</g>
<!-- 11 -->
<g id="node24" class="node">
<title>11</title>
<ellipse fill="none" stroke="black" cx="907" cy="-234" rx="27" ry="18"/>
<text text-anchor="middle" x="907" y="-230.3" font-family="Times,serif" font-size="14.00">11</text>
</g>
<!-- 11&#45;&gt;12 -->
<g id="edge52" class="edge">
<title>11&#45;&gt;12</title>
<path fill="none" stroke="purple" d="M886.34,-222.37C860.78,-209.21 817.5,-186.93 791.85,-173.73"/>
</g>
<!-- 11&#45;&gt;20 -->
<g id="edge50" class="edge">
<title>11&#45;&gt;20</title>
<path fill="none" stroke="red" d="M900.08,-216.51C897.22,-198.57 895.83,-169.11 892,-144 886.04,-104.95 873.98,-60.14 870.08,-36.21"/>
</g>
<!-- 11&#45;&gt;20 -->
<g id="edge53" class="edge">
<title>11&#45;&gt;20</title>
<path fill="none" stroke="cyan" d="M913.38,-216.18C915.2,-198.21 913.81,-168.95 910,-144 903.91,-104.07 891.43,-58.12 881.47,-34.62"/>
</g>
<!-- 11&#45;&gt;19 -->
<g id="edge49" class="edge">
<title>11&#45;&gt;19</title>
<path fill="none" stroke="black" d="M904.58,-216.03C901.26,-197.15 893.92,-166.37 879,-144 867.66,-126.99 849.33,-112.45 835.36,-102.92"/>
</g>
<!-- 11&#45;&gt;15 -->
<g id="edge51" class="edge">
<title>11&#45;&gt;15</title>
<path fill="none" stroke="green" d="M893.43,-218.15C882.57,-206.28 867.41,-189.7 856.55,-177.82"/>
</g>
</g>
</svg>
