<?xml version="1.0" encoding="UTF-8" standalone="no"?>
<!DOCTYPE svg PUBLIC "-//W3C//DTD SVG 1.1//EN"
 "http://www.w3.org/Graphics/SVG/1.1/DTD/svg11.dtd">
<!-- Generated by graphviz version 2.43.0 (0)
 -->
<!-- Title: G Pages: 1 -->
<svg width="332pt" height="116pt"
 viewBox="0.00 0.00 332.00 116.00" xmlns="http://www.w3.org/2000/svg" xmlns:xlink="http://www.w3.org/1999/xlink">
<g id="graph0" class="graph" transform="scale(1 1) rotate(0) translate(4 112)">
<title>G</title>
<polygon fill="white" stroke="transparent" points="-4,4 -4,-112 328,-112 328,4 -4,4"/>
<!-- 2 -->
<g id="node1" class="node">
<title>2</title>
<ellipse fill="none" stroke="black" cx="27" cy="-90" rx="27" ry="18"/>
<text text-anchor="middle" x="27" y="-86.3" font-family="Times,serif" font-size="14.00">2</text>
</g>
<!-- 2&#45;&gt;2 -->
<g id="edge1" class="edge">
<title>2&#45;&gt;2</title>
<path fill="none" stroke="black" d="M53.35,-94.48C63.53,-94.68 72,-93.19 72,-90 72,-86.81 63.53,-85.32 53.35,-85.52"/>
</g>
<!-- 2&#45;&gt;2 -->
<g id="edge2" class="edge">
<title>2&#45;&gt;2</title>
<path fill="none" stroke="red" d="M51.57,-97.84C70.6,-100.77 90,-98.16 90,-90 90,-81.84 70.6,-79.23 51.57,-82.16"/>
</g>
<!-- 2&#45;&gt;2 -->
<g id="edge3" class="edge">
<title>2&#45;&gt;2</title>
<path fill="none" stroke="green" d="M49.8,-99.8C76.67,-106.98 108,-103.71 108,-90 108,-76.29 76.67,-73.02 49.8,-80.2"/>
</g>
<!-- 10 -->
<g id="node2" class="node">
<title>10</title>
<ellipse fill="none" stroke="black" cx="153" cy="-90" rx="27" ry="18"/>
<text text-anchor="middle" x="153" y="-86.3" font-family="Times,serif" font-size="14.00">10</text>
</g>
<!-- 10&#45;&gt;10 -->
<g id="edge5" class="edge">
<title>10&#45;&gt;10</title>
<path fill="none" stroke="red" d="M172.9,-102.43C185.69,-105.68 198,-101.53 198,-90 198,-78.47 185.69,-74.32 172.9,-77.57"/>
</g>
<!-- 13 -->
<g id="node3" class="node">
<title>13</title>
<ellipse fill="none" stroke="black" cx="153" cy="-18" rx="27" ry="18"/>
<text text-anchor="middle" x="153" y="-14.3" font-family="Times,serif" font-size="14.00">13</text>
</g>
<!-- 10&#45;&gt;13 -->
<g id="edge4" class="edge">
<title>10&#45;&gt;13</title>
<path fill="none" stroke="black" d="M147.16,-72.41C145.96,-61.41 145.95,-47.03 147.12,-35.96"/>
</g>
<!-- 10&#45;&gt;13 -->
<g id="edge6" class="edge">
<title>10&#45;&gt;13</title>
<path fill="none" stroke="green" d="M158.84,-72.41C160.04,-61.41 160.05,-47.03 158.88,-35.96"/>
</g>
<!-- 13&#45;&gt;13 -->
<g id="edge7" class="edge">
<title>13&#45;&gt;13</title>
<path fill="none" stroke="red" d="M172.9,-30.43C185.69,-33.68 198,-29.53 198,-18 198,-6.47 185.69,-2.32 172.9,-5.57"/>
</g>
<!-- 21 -->
<g id="node4" class="node">
<title>21</title>
<ellipse fill="none" stroke="black" cx="243" cy="-90" rx="27" ry="18"/>
<text text-anchor="middle" x="243" y="-86.3" font-family="Times,serif" font-size="14.00">21</text>
</g>
<!-- 21&#45;&gt;21 -->
<g id="edge8" class="edge">
<title>21&#45;&gt;21</title>
<path fill="none" stroke="black" d="M269.35,-94.48C279.53,-94.68 288,-93.19 288,-90 288,-86.81 279.53,-85.32 269.35,-85.52"/>
</g>
<!-- 21&#45;&gt;21 -->
<g id="edge9" class="edge">
<title>21&#45;&gt;21</title>
<path fill="none" stroke="red" d="M267.57,-97.84C286.6,-100.77 306,-98.16 306,-90 306,-81.84 286.6,-79.23 267.57,-82.16"/>
</g>
<!-- 21&#45;&gt;21 -->
<g id="edge10" class="edge">
<title>21&#45;&gt;21</title>
<path fill="none" stroke="green" d="M265.8,-99.8C292.67,-106.98 324,-103.71 324,-90 324,-76.29 292.67,-73.02 265.8,-80.2"/>
</g>
</g>
</svg>
