<?xml version="1.0" encoding="UTF-8" standalone="no"?>
<!DOCTYPE svg PUBLIC "-//W3C//DTD SVG 1.1//EN"
 "http://www.w3.org/Graphics/SVG/1.1/DTD/svg11.dtd">
<!-- Generated by graphviz version 2.43.0 (0)
 -->
<!-- Title: G Pages: 1 -->
<svg width="170pt" height="188pt"
 viewBox="0.00 0.00 170.00 188.00" xmlns="http://www.w3.org/2000/svg" xmlns:xlink="http://www.w3.org/1999/xlink">
<g id="graph0" class="graph" transform="scale(1 1) rotate(0) translate(4 184)">
<title>G</title>
<polygon fill="white" stroke="transparent" points="-4,4 -4,-184 166,-184 166,4 -4,4"/>
<!-- 1 -->
<g id="node1" class="node">
<title>1</title>
<ellipse fill="none" stroke="black" cx="72" cy="-162" rx="27" ry="18"/>
<text text-anchor="middle" x="72" y="-158.3" font-family="Times,serif" font-size="14.00">1</text>
</g>
<!-- 1&#45;&gt;1 -->
<g id="edge1" class="edge">
<title>1&#45;&gt;1</title>
<path fill="none" stroke="black" d="M91.9,-174.43C104.69,-177.68 117,-173.53 117,-162 117,-150.47 104.69,-146.32 91.9,-149.57"/>
</g>
<!-- 6 -->
<g id="node2" class="node">
<title>6</title>
<ellipse fill="none" stroke="black" cx="27" cy="-90" rx="27" ry="18"/>
<text text-anchor="middle" x="27" y="-86.3" font-family="Times,serif" font-size="14.00">6</text>
</g>
<!-- 1&#45;&gt;6 -->
<g id="edge2" class="edge">
<title>1&#45;&gt;6</title>
<path fill="none" stroke="red" d="M61.79,-145.12C54.42,-133.66 44.53,-118.26 37.17,-106.82"/>
</g>
<!-- 5 -->
<g id="node3" class="node">
<title>5</title>
<ellipse fill="none" stroke="black" cx="117" cy="-90" rx="27" ry="18"/>
<text text-anchor="middle" x="117" y="-86.3" font-family="Times,serif" font-size="14.00">5</text>
</g>
<!-- 1&#45;&gt;5 -->
<g id="edge3" class="edge">
<title>1&#45;&gt;5</title>
<path fill="none" stroke="green" d="M82.21,-145.12C89.58,-133.66 99.47,-118.26 106.83,-106.82"/>
</g>
<!-- 6&#45;&gt;6 -->
<g id="edge6" class="edge">
<title>6&#45;&gt;6</title>
<path fill="none" stroke="black" d="M46.9,-102.43C59.69,-105.68 72,-101.53 72,-90 72,-78.47 59.69,-74.32 46.9,-77.57"/>
</g>
<!-- 14 -->
<g id="node4" class="node">
<title>14</title>
<ellipse fill="none" stroke="black" cx="72" cy="-18" rx="27" ry="18"/>
<text text-anchor="middle" x="72" y="-14.3" font-family="Times,serif" font-size="14.00">14</text>
</g>
<!-- 6&#45;&gt;14 -->
<g id="edge7" class="edge">
<title>6&#45;&gt;14</title>
<path fill="none" stroke="green" d="M37.21,-73.12C44.58,-61.66 54.47,-46.26 61.83,-34.82"/>
</g>
<!-- 5&#45;&gt;5 -->
<g id="edge4" class="edge">
<title>5&#45;&gt;5</title>
<path fill="none" stroke="black" d="M136.9,-102.43C149.69,-105.68 162,-101.53 162,-90 162,-78.47 149.69,-74.32 136.9,-77.57"/>
</g>
<!-- 5&#45;&gt;14 -->
<g id="edge5" class="edge">
<title>5&#45;&gt;14</title>
<path fill="none" stroke="red" d="M106.79,-73.12C99.42,-61.66 89.53,-46.26 82.17,-34.82"/>
</g>
<!-- 14&#45;&gt;14 -->
<g id="edge8" class="edge">
<title>14&#45;&gt;14</title>
<path fill="none" stroke="black" d="M91.9,-30.43C104.69,-33.68 117,-29.53 117,-18 117,-6.47 104.69,-2.32 91.9,-5.57"/>
</g>
</g>
</svg>
