<?xml version="1.0" encoding="UTF-8" standalone="no"?>
<!DOCTYPE svg PUBLIC "-//W3C//DTD SVG 1.1//EN"
 "http://www.w3.org/Graphics/SVG/1.1/DTD/svg11.dtd">
<!-- Generated by graphviz version 2.43.0 (0)
 -->
<!-- Title: G Pages: 1 -->
<svg width="134pt" height="188pt"
 viewBox="0.00 0.00 134.00 188.00" xmlns="http://www.w3.org/2000/svg" xmlns:xlink="http://www.w3.org/1999/xlink">
<g id="graph0" class="graph" transform="scale(1 1) rotate(0) translate(4 184)">
<title>G</title>
<polygon fill="white" stroke="transparent" points="-4,4 -4,-184 130,-184 130,4 -4,4"/>
<!-- 9 -->
<g id="node1" class="node">
<title>9</title>
<ellipse fill="none" stroke="black" cx="27" cy="-162" rx="27" ry="18"/>
<text text-anchor="middle" x="27" y="-158.3" font-family="Times,serif" font-size="14.00">9</text>
</g>
<!-- 18 -->
<g id="node2" class="node">
<title>18</title>
<ellipse fill="none" stroke="black" cx="27" cy="-90" rx="27" ry="18"/>
<text text-anchor="middle" x="27" y="-86.3" font-family="Times,serif" font-size="14.00">18</text>
</g>
<!-- 9&#45;&gt;18 -->
<g id="edge1" class="edge">
<title>9&#45;&gt;18</title>
<path fill="none" stroke="black" d="M21.16,-144.41C19.96,-133.41 19.95,-119.03 21.12,-107.96"/>
</g>
<!-- 9&#45;&gt;18 -->
<g id="edge2" class="edge">
<title>9&#45;&gt;18</title>
<path fill="none" stroke="red" d="M32.84,-144.41C34.04,-133.41 34.05,-119.03 32.88,-107.96"/>
</g>
<!-- 17 -->
<g id="node3" class="node">
<title>17</title>
<ellipse fill="none" stroke="black" cx="99" cy="-90" rx="27" ry="18"/>
<text text-anchor="middle" x="99" y="-86.3" font-family="Times,serif" font-size="14.00">17</text>
</g>
<!-- 9&#45;&gt;17 -->
<g id="edge3" class="edge">
<title>9&#45;&gt;17</title>
<path fill="none" stroke="green" d="M41.57,-146.83C53.98,-134.77 71.73,-117.51 84.2,-105.38"/>
</g>
<!-- 22 -->
<g id="node4" class="node">
<title>22</title>
<ellipse fill="none" stroke="black" cx="99" cy="-18" rx="27" ry="18"/>
<text text-anchor="middle" x="99" y="-14.3" font-family="Times,serif" font-size="14.00">22</text>
</g>
<!-- 18&#45;&gt;22 -->
<g id="edge6" class="edge">
<title>18&#45;&gt;22</title>
<path fill="none" stroke="green" d="M41.57,-74.83C53.98,-62.77 71.73,-45.51 84.2,-33.38"/>
</g>
<!-- 17&#45;&gt;22 -->
<g id="edge4" class="edge">
<title>17&#45;&gt;22</title>
<path fill="none" stroke="black" d="M93.16,-72.41C91.96,-61.41 91.95,-47.03 93.12,-35.96"/>
</g>
<!-- 17&#45;&gt;22 -->
<g id="edge5" class="edge">
<title>17&#45;&gt;22</title>
<path fill="none" stroke="red" d="M104.84,-72.41C106.04,-61.41 106.05,-47.03 104.88,-35.96"/>
</g>
</g>
</svg>
