<?xml version="1.0" encoding="UTF-8" standalone="no"?>
<!DOCTYPE svg PUBLIC "-//W3C//DTD SVG 1.1//EN"
 "http://www.w3.org/Graphics/SVG/1.1/DTD/svg11.dtd">
<!-- Generated by graphviz version 2.43.0 (0)
 -->
<!-- Title: G Pages: 1 -->
<svg width="122pt" height="260pt"
 viewBox="0.00 0.00 122.47 260.00" xmlns="http://www.w3.org/2000/svg" xmlns:xlink="http://www.w3.org/1999/xlink">
<g id="graph0" class="graph" transform="scale(1 1) rotate(0) translate(4 256)">
<title>G</title>
<polygon fill="white" stroke="transparent" points="-4,4 -4,-256 118.47,-256 118.47,4 -4,4"/>
<!-- 2 -->
<g id="node1" class="node">
<title>2</title>
<ellipse fill="none" stroke="black" cx="73" cy="-234" rx="27" ry="18"/>
<text text-anchor="middle" x="73" y="-230.3" font-family="Times,serif" font-size="14.00">2</text>
</g>
<!-- 10 -->
<g id="node2" class="node">
<title>10</title>
<ellipse fill="none" stroke="black" cx="73" cy="-162" rx="27" ry="18"/>
<text text-anchor="middle" x="73" y="-158.3" font-family="Times,serif" font-size="14.00">10</text>
</g>
<!-- 2&#45;&gt;10 -->
<g id="edge1" class="edge">
<title>2&#45;&gt;10</title>
<path fill="none" stroke="black" d="M73,-215.7C73,-204.85 73,-190.92 73,-180.1"/>
</g>
<!-- 13 -->
<g id="node3" class="node">
<title>13</title>
<ellipse fill="none" stroke="black" cx="27" cy="-90" rx="27" ry="18"/>
<text text-anchor="middle" x="27" y="-86.3" font-family="Times,serif" font-size="14.00">13</text>
</g>
<!-- 2&#45;&gt;13 -->
<g id="edge2" class="edge">
<title>2&#45;&gt;13</title>
<path fill="none" stroke="black" d="M59.79,-217.89C51.79,-207.85 42.17,-193.98 37,-180 28.21,-156.23 26.56,-126.65 26.52,-108.29"/>
</g>
<!-- 21 -->
<g id="node4" class="node">
<title>21</title>
<ellipse fill="none" stroke="black" cx="82" cy="-18" rx="27" ry="18"/>
<text text-anchor="middle" x="82" y="-14.3" font-family="Times,serif" font-size="14.00">21</text>
</g>
<!-- 2&#45;&gt;21 -->
<g id="edge3" class="edge">
<title>2&#45;&gt;21</title>
<path fill="none" stroke="black" d="M86.75,-218.07C94.96,-208.1 104.62,-194.25 109,-180 124.83,-128.53 102.29,-64.77 89.61,-35.32"/>
</g>
<!-- 10&#45;&gt;13 -->
<g id="edge4" class="edge">
<title>10&#45;&gt;13</title>
<path fill="none" stroke="black" d="M62.56,-145.12C55.03,-133.66 44.92,-118.26 37.4,-106.82"/>
</g>
<!-- 10&#45;&gt;21 -->
<g id="edge5" class="edge">
<title>10&#45;&gt;21</title>
<path fill="none" stroke="black" d="M74.09,-143.87C75.82,-116.58 79.18,-63.52 80.91,-36.19"/>
</g>
<!-- 13&#45;&gt;21 -->
<g id="edge6" class="edge">
<title>13&#45;&gt;21</title>
<path fill="none" stroke="black" d="M38.93,-73.81C48.16,-62.07 60.87,-45.89 70.09,-34.16"/>
</g>
</g>
</svg>
